G04 #@! TF.GenerationSoftware,KiCad,Pcbnew,(5.1.9)-1*
G04 #@! TF.CreationDate,2021-08-06T09:52:32+02:00*
G04 #@! TF.ProjectId,Driver,44726976-6572-42e6-9b69-6361645f7063,rev?*
G04 #@! TF.SameCoordinates,Original*
G04 #@! TF.FileFunction,Profile,NP*
%FSLAX46Y46*%
G04 Gerber Fmt 4.6, Leading zero omitted, Abs format (unit mm)*
G04 Created by KiCad (PCBNEW (5.1.9)-1) date 2021-08-06 09:52:32*
%MOMM*%
%LPD*%
G01*
G04 APERTURE LIST*
G04 #@! TA.AperFunction,Profile*
%ADD10C,0.050000*%
G04 #@! TD*
G04 #@! TA.AperFunction,Profile*
%ADD11C,0.150000*%
G04 #@! TD*
G04 APERTURE END LIST*
D10*
X150617904Y-110013591D02*
G75*
G02*
X151617904Y-111013591I0J-1000000D01*
G01*
X161617904Y-111513591D02*
X151617904Y-111513591D01*
X131617904Y-111013591D02*
G75*
G02*
X132617904Y-110013591I1000000J0D01*
G01*
X131617904Y-111513591D02*
X121617904Y-111513591D01*
X151617904Y-111513591D02*
X151617904Y-111013591D01*
X150617904Y-110013591D02*
X132617904Y-110013591D01*
X131617904Y-111013591D02*
X131617904Y-111513591D01*
X132617904Y-77013591D02*
G75*
G02*
X131617904Y-76013591I0J1000000D01*
G01*
X121617904Y-75513591D02*
X131617904Y-75513591D01*
X151617904Y-76013591D02*
G75*
G02*
X150617904Y-77013591I-1000000J0D01*
G01*
X151617904Y-75513591D02*
X161617904Y-75513591D01*
X131617904Y-75513591D02*
X131617904Y-76013591D01*
X132617904Y-77013591D02*
X150617904Y-77013591D01*
X151617904Y-76013591D02*
X151617904Y-75513591D01*
X161117904Y-103013591D02*
G75*
G02*
X160117904Y-102013591I0J1000000D01*
G01*
X160117904Y-85013591D02*
G75*
G02*
X161117904Y-84013591I1000000J0D01*
G01*
X122117904Y-102013591D02*
G75*
G02*
X121117904Y-103013591I-1000000J0D01*
G01*
X121117904Y-84013591D02*
G75*
G02*
X122117904Y-85013591I0J-1000000D01*
G01*
X146367904Y-93513591D02*
G75*
G03*
X146367904Y-93513591I-4750000J0D01*
G01*
X116617904Y-103013591D02*
X116617904Y-106513591D01*
X116617904Y-80513591D02*
X116617904Y-84013591D01*
X166617904Y-84013591D02*
X166617904Y-80513591D01*
X166617904Y-106513591D02*
X166617904Y-103013591D01*
X161117904Y-103013591D02*
X166617904Y-103013591D01*
X160117904Y-85013591D02*
X160117904Y-102013591D01*
X166617904Y-84013591D02*
X161117904Y-84013591D01*
X121117904Y-84013591D02*
X116617904Y-84013591D01*
X122117904Y-102013591D02*
X122117904Y-85013591D01*
X116617904Y-103013591D02*
X121117904Y-103013591D01*
D11*
X149838204Y-100233591D02*
G75*
G03*
X149838204Y-100233591I-1500300J0D01*
G01*
X134278204Y-102353591D02*
G75*
G03*
X134278204Y-102353591I-1500300J0D01*
G01*
X136407543Y-86794252D02*
G75*
G03*
X136407543Y-86794252I-1500300J0D01*
G01*
X151958204Y-84673591D02*
G75*
G03*
X151958204Y-84673591I-1500300J0D01*
G01*
X122117904Y-79513591D02*
G75*
G03*
X122117904Y-79513591I-1500000J0D01*
G01*
X164117904Y-79513591D02*
G75*
G03*
X164117904Y-79513591I-1500000J0D01*
G01*
D10*
X116617904Y-80513591D02*
G75*
G02*
X121617904Y-75513591I5000000J0D01*
G01*
X121617904Y-111513591D02*
G75*
G02*
X116617904Y-106513591I0J5000000D01*
G01*
D11*
X122117904Y-107513591D02*
G75*
G03*
X122117904Y-107513591I-1500000J0D01*
G01*
D10*
X166617904Y-106513591D02*
G75*
G02*
X161617904Y-111513591I-5000000J0D01*
G01*
X161617904Y-75513591D02*
G75*
G02*
X166617904Y-80513591I0J-5000000D01*
G01*
D11*
X164117904Y-107513591D02*
G75*
G03*
X164117904Y-107513591I-1500000J0D01*
G01*
M02*
