G04 #@! TF.GenerationSoftware,KiCad,Pcbnew,(5.1.9)-1*
G04 #@! TF.CreationDate,2021-08-06T09:52:32+02:00*
G04 #@! TF.ProjectId,Driver,44726976-6572-42e6-9b69-6361645f7063,rev?*
G04 #@! TF.SameCoordinates,Original*
G04 #@! TF.FileFunction,Copper,L2,Bot*
G04 #@! TF.FilePolarity,Positive*
%FSLAX46Y46*%
G04 Gerber Fmt 4.6, Leading zero omitted, Abs format (unit mm)*
G04 Created by KiCad (PCBNEW (5.1.9)-1) date 2021-08-06 09:52:32*
%MOMM*%
%LPD*%
G01*
G04 APERTURE LIST*
G04 #@! TA.AperFunction,SMDPad,CuDef*
%ADD10C,0.600000*%
G04 #@! TD*
G04 #@! TA.AperFunction,Conductor*
%ADD11C,0.254000*%
G04 #@! TD*
G04 #@! TA.AperFunction,Conductor*
%ADD12C,0.100000*%
G04 #@! TD*
G04 APERTURE END LIST*
D10*
X165617904Y-83013591D03*
D11*
X131265905Y-76030883D02*
X131267419Y-76046260D01*
X131267376Y-76052475D01*
X131267856Y-76057367D01*
X131288257Y-76251464D01*
X131294676Y-76282736D01*
X131300650Y-76314053D01*
X131302071Y-76318758D01*
X131359783Y-76505196D01*
X131372130Y-76534567D01*
X131384097Y-76564187D01*
X131386404Y-76568526D01*
X131479229Y-76740203D01*
X131497062Y-76766641D01*
X131514539Y-76793349D01*
X131517646Y-76797158D01*
X131642050Y-76947536D01*
X131664663Y-76969991D01*
X131687008Y-76992810D01*
X131690796Y-76995942D01*
X131842038Y-77119292D01*
X131868580Y-77136927D01*
X131894935Y-77154972D01*
X131899258Y-77157310D01*
X132071581Y-77248935D01*
X132101071Y-77261090D01*
X132130400Y-77273660D01*
X132135095Y-77275114D01*
X132321931Y-77331523D01*
X132353208Y-77337716D01*
X132384432Y-77344353D01*
X132389320Y-77344866D01*
X132583554Y-77363911D01*
X132600612Y-77365591D01*
X150635196Y-77365591D01*
X150650582Y-77364076D01*
X150656788Y-77364119D01*
X150661680Y-77363639D01*
X150855777Y-77343238D01*
X150887049Y-77336819D01*
X150918366Y-77330845D01*
X150923069Y-77329425D01*
X150923075Y-77329423D01*
X151109509Y-77271712D01*
X151138880Y-77259365D01*
X151168500Y-77247398D01*
X151172839Y-77245091D01*
X151344516Y-77152266D01*
X151370954Y-77134433D01*
X151397662Y-77116956D01*
X151401471Y-77113849D01*
X151551849Y-76989445D01*
X151574304Y-76966832D01*
X151597123Y-76944487D01*
X151600255Y-76940699D01*
X151723605Y-76789457D01*
X151741240Y-76762915D01*
X151759285Y-76736560D01*
X151761623Y-76732237D01*
X151853248Y-76559914D01*
X151865403Y-76530424D01*
X151877973Y-76501095D01*
X151879427Y-76496400D01*
X151935836Y-76309564D01*
X151942029Y-76278287D01*
X151948666Y-76247063D01*
X151949179Y-76242175D01*
X151968224Y-76047941D01*
X151969904Y-76030883D01*
X151969904Y-75865591D01*
X161602232Y-75865591D01*
X162440746Y-75940426D01*
X163237579Y-76158415D01*
X163524500Y-76295270D01*
X161387905Y-76295270D01*
X161363129Y-76297710D01*
X161339304Y-76304937D01*
X161317348Y-76316673D01*
X161298102Y-76332467D01*
X159398102Y-78232467D01*
X159382308Y-78251713D01*
X159370572Y-78273669D01*
X159363345Y-78297494D01*
X159360905Y-78322270D01*
X159360905Y-80722270D01*
X159363345Y-80747046D01*
X159370572Y-80770871D01*
X159382308Y-80792827D01*
X159398102Y-80812073D01*
X161298102Y-82712073D01*
X161317348Y-82727867D01*
X161339304Y-82739603D01*
X161363129Y-82746830D01*
X161387905Y-82749270D01*
X163787905Y-82749270D01*
X163812681Y-82746830D01*
X163836506Y-82739603D01*
X163858462Y-82727867D01*
X163877708Y-82712073D01*
X165777708Y-80812073D01*
X165793502Y-80792827D01*
X165805238Y-80770871D01*
X165812465Y-80747046D01*
X165814905Y-80722270D01*
X165814905Y-78560182D01*
X166021806Y-79031515D01*
X166215308Y-79837507D01*
X166265905Y-80526516D01*
X166265904Y-83661591D01*
X161100612Y-83661591D01*
X161085226Y-83663106D01*
X161079019Y-83663063D01*
X161074128Y-83663543D01*
X160880031Y-83683944D01*
X160848759Y-83690363D01*
X160817442Y-83696337D01*
X160812739Y-83697757D01*
X160812733Y-83697759D01*
X160626299Y-83755470D01*
X160596928Y-83767817D01*
X160567308Y-83779784D01*
X160562969Y-83782092D01*
X160391292Y-83874916D01*
X160364854Y-83892749D01*
X160338146Y-83910226D01*
X160334337Y-83913333D01*
X160183959Y-84037737D01*
X160161504Y-84060350D01*
X160138685Y-84082695D01*
X160135553Y-84086483D01*
X160012203Y-84237725D01*
X159994580Y-84264249D01*
X159976523Y-84290621D01*
X159974185Y-84294945D01*
X159882560Y-84467267D01*
X159870405Y-84496757D01*
X159857835Y-84526086D01*
X159856382Y-84530782D01*
X159799972Y-84717618D01*
X159793776Y-84748910D01*
X159787142Y-84780120D01*
X159786629Y-84785008D01*
X159767584Y-84979241D01*
X159765904Y-84996300D01*
X159765905Y-102030883D01*
X159767419Y-102046260D01*
X159767376Y-102052475D01*
X159767856Y-102057367D01*
X159788257Y-102251464D01*
X159794676Y-102282736D01*
X159800650Y-102314053D01*
X159802071Y-102318758D01*
X159859783Y-102505196D01*
X159872130Y-102534567D01*
X159884097Y-102564187D01*
X159886404Y-102568526D01*
X159979229Y-102740203D01*
X159997062Y-102766641D01*
X160014539Y-102793349D01*
X160017646Y-102797158D01*
X160142050Y-102947536D01*
X160164663Y-102969991D01*
X160187008Y-102992810D01*
X160190796Y-102995942D01*
X160342038Y-103119292D01*
X160368580Y-103136927D01*
X160394935Y-103154972D01*
X160399258Y-103157310D01*
X160571581Y-103248935D01*
X160601071Y-103261090D01*
X160630400Y-103273660D01*
X160635095Y-103275114D01*
X160821931Y-103331523D01*
X160853208Y-103337716D01*
X160884432Y-103344353D01*
X160889320Y-103344866D01*
X161083554Y-103363911D01*
X161100612Y-103365591D01*
X166265905Y-103365591D01*
X166265904Y-106497919D01*
X166191069Y-107336433D01*
X165973080Y-108133264D01*
X165814905Y-108464885D01*
X165814905Y-106322270D01*
X165812465Y-106297494D01*
X165805238Y-106273669D01*
X165793502Y-106251713D01*
X165777708Y-106232467D01*
X163877708Y-104332467D01*
X163858462Y-104316673D01*
X163836506Y-104304937D01*
X163812681Y-104297710D01*
X163787905Y-104295270D01*
X161387905Y-104295270D01*
X161363129Y-104297710D01*
X161339304Y-104304937D01*
X161317348Y-104316673D01*
X161298102Y-104332467D01*
X159398102Y-106232467D01*
X159382308Y-106251713D01*
X159370572Y-106273669D01*
X159363345Y-106297494D01*
X159360905Y-106322270D01*
X159360905Y-108722270D01*
X159363345Y-108747046D01*
X159370572Y-108770871D01*
X159382308Y-108792827D01*
X159398102Y-108812073D01*
X161298102Y-110712073D01*
X161317348Y-110727867D01*
X161339304Y-110739603D01*
X161363129Y-110746830D01*
X161387905Y-110749270D01*
X163483202Y-110749270D01*
X163099980Y-110917493D01*
X162293988Y-111110995D01*
X161604993Y-111161591D01*
X151969904Y-111161591D01*
X151969904Y-110996299D01*
X151968389Y-110980913D01*
X151968432Y-110974706D01*
X151967952Y-110969815D01*
X151947551Y-110775718D01*
X151941132Y-110744446D01*
X151935158Y-110713129D01*
X151933737Y-110708424D01*
X151876025Y-110521986D01*
X151863678Y-110492615D01*
X151851711Y-110462995D01*
X151849403Y-110458656D01*
X151756579Y-110286979D01*
X151738746Y-110260541D01*
X151721269Y-110233833D01*
X151718162Y-110230024D01*
X151593758Y-110079646D01*
X151571145Y-110057191D01*
X151548800Y-110034372D01*
X151545012Y-110031240D01*
X151393770Y-109907890D01*
X151367246Y-109890267D01*
X151340874Y-109872210D01*
X151336550Y-109869872D01*
X151164228Y-109778247D01*
X151134738Y-109766092D01*
X151105409Y-109753522D01*
X151100713Y-109752069D01*
X150913877Y-109695659D01*
X150882585Y-109689463D01*
X150851375Y-109682829D01*
X150846487Y-109682316D01*
X150652254Y-109663271D01*
X150635196Y-109661591D01*
X132600612Y-109661591D01*
X132585226Y-109663106D01*
X132579019Y-109663063D01*
X132574128Y-109663543D01*
X132380031Y-109683944D01*
X132348759Y-109690363D01*
X132317442Y-109696337D01*
X132312739Y-109697757D01*
X132312733Y-109697759D01*
X132126299Y-109755470D01*
X132096928Y-109767817D01*
X132067308Y-109779784D01*
X132062969Y-109782092D01*
X131891292Y-109874916D01*
X131864854Y-109892749D01*
X131838146Y-109910226D01*
X131834337Y-109913333D01*
X131683959Y-110037737D01*
X131661504Y-110060350D01*
X131638685Y-110082695D01*
X131635553Y-110086483D01*
X131512203Y-110237725D01*
X131494580Y-110264249D01*
X131476523Y-110290621D01*
X131474185Y-110294945D01*
X131382560Y-110467267D01*
X131370405Y-110496757D01*
X131357835Y-110526086D01*
X131356382Y-110530782D01*
X131299972Y-110717618D01*
X131293776Y-110748910D01*
X131287142Y-110780120D01*
X131286629Y-110785008D01*
X131267633Y-110978746D01*
X131265904Y-110996300D01*
X131265904Y-111161591D01*
X121633576Y-111161591D01*
X120795062Y-111086756D01*
X119998231Y-110868767D01*
X119747700Y-110749270D01*
X121787905Y-110749270D01*
X121812681Y-110746830D01*
X121836506Y-110739603D01*
X121858462Y-110727867D01*
X121877708Y-110712073D01*
X123777708Y-108812073D01*
X123793502Y-108792827D01*
X123805238Y-108770871D01*
X123812465Y-108747046D01*
X123814905Y-108722270D01*
X123814905Y-106322270D01*
X123812465Y-106297494D01*
X123805238Y-106273669D01*
X123793502Y-106251713D01*
X123777708Y-106232467D01*
X121877708Y-104332467D01*
X121858462Y-104316673D01*
X121836506Y-104304937D01*
X121812681Y-104297710D01*
X121787905Y-104295270D01*
X119387905Y-104295270D01*
X119363129Y-104297710D01*
X119339304Y-104304937D01*
X119317348Y-104316673D01*
X119298102Y-104332467D01*
X117398102Y-106232467D01*
X117382308Y-106251713D01*
X117370572Y-106273669D01*
X117363345Y-106297494D01*
X117360905Y-106322270D01*
X117360905Y-108330321D01*
X117214002Y-107995667D01*
X117020500Y-107189675D01*
X116969904Y-106500680D01*
X116969904Y-103365591D01*
X121135196Y-103365591D01*
X121150582Y-103364076D01*
X121156788Y-103364119D01*
X121161680Y-103363639D01*
X121355777Y-103343238D01*
X121387049Y-103336819D01*
X121418366Y-103330845D01*
X121423069Y-103329425D01*
X121423075Y-103329423D01*
X121609509Y-103271712D01*
X121638880Y-103259365D01*
X121668500Y-103247398D01*
X121672839Y-103245091D01*
X121844516Y-103152266D01*
X121870954Y-103134433D01*
X121897662Y-103116956D01*
X121901471Y-103113849D01*
X122051849Y-102989445D01*
X122074304Y-102966832D01*
X122097123Y-102944487D01*
X122100255Y-102940699D01*
X122223605Y-102789457D01*
X122241240Y-102762915D01*
X122259285Y-102736560D01*
X122261623Y-102732237D01*
X122353248Y-102559914D01*
X122365403Y-102530424D01*
X122377973Y-102501095D01*
X122379427Y-102496400D01*
X122435836Y-102309564D01*
X122442029Y-102278287D01*
X122448666Y-102247063D01*
X122449179Y-102242175D01*
X122456729Y-102165173D01*
X130864860Y-102165173D01*
X130864860Y-102542009D01*
X130938378Y-102911605D01*
X131082587Y-103259757D01*
X131291946Y-103573085D01*
X131558410Y-103839549D01*
X131871738Y-104048908D01*
X132219890Y-104193117D01*
X132589486Y-104266635D01*
X132966322Y-104266635D01*
X133335918Y-104193117D01*
X133684070Y-104048908D01*
X133997398Y-103839549D01*
X134263862Y-103573085D01*
X134473221Y-103259757D01*
X134617430Y-102911605D01*
X134690948Y-102542009D01*
X134690948Y-102165173D01*
X134617430Y-101795577D01*
X134473221Y-101447425D01*
X134263862Y-101134097D01*
X133997398Y-100867633D01*
X133684070Y-100658274D01*
X133335918Y-100514065D01*
X132966322Y-100440547D01*
X132589486Y-100440547D01*
X132219890Y-100514065D01*
X131871738Y-100658274D01*
X131558410Y-100867633D01*
X131291946Y-101134097D01*
X131082587Y-101447425D01*
X130938378Y-101795577D01*
X130864860Y-102165173D01*
X122456729Y-102165173D01*
X122468224Y-102047941D01*
X122469904Y-102030883D01*
X122469904Y-100045173D01*
X146424860Y-100045173D01*
X146424860Y-100422009D01*
X146498378Y-100791605D01*
X146642587Y-101139757D01*
X146851946Y-101453085D01*
X147118410Y-101719549D01*
X147431738Y-101928908D01*
X147779890Y-102073117D01*
X148149486Y-102146635D01*
X148526322Y-102146635D01*
X148895918Y-102073117D01*
X149244070Y-101928908D01*
X149557398Y-101719549D01*
X149823862Y-101453085D01*
X150033221Y-101139757D01*
X150177430Y-100791605D01*
X150250948Y-100422009D01*
X150250948Y-100045173D01*
X150177430Y-99675577D01*
X150033221Y-99327425D01*
X149823862Y-99014097D01*
X149557398Y-98747633D01*
X149244070Y-98538274D01*
X148895918Y-98394065D01*
X148526322Y-98320547D01*
X148149486Y-98320547D01*
X147779890Y-98394065D01*
X147431738Y-98538274D01*
X147118410Y-98747633D01*
X146851946Y-99014097D01*
X146642587Y-99327425D01*
X146498378Y-99675577D01*
X146424860Y-100045173D01*
X122469904Y-100045173D01*
X122469904Y-93040992D01*
X136517754Y-93040992D01*
X136517754Y-93986190D01*
X136691433Y-94915293D01*
X137032878Y-95796663D01*
X137530460Y-96600286D01*
X138167235Y-97298795D01*
X138921518Y-97868403D01*
X139767624Y-98289714D01*
X140676739Y-98548379D01*
X141617904Y-98635591D01*
X142559069Y-98548379D01*
X143468184Y-98289714D01*
X144314290Y-97868403D01*
X145068573Y-97298795D01*
X145705348Y-96600286D01*
X146202930Y-95796663D01*
X146544375Y-94915293D01*
X146718054Y-93986190D01*
X146718054Y-93040992D01*
X146544375Y-92111889D01*
X146202930Y-91230519D01*
X145705348Y-90426896D01*
X145068573Y-89728387D01*
X144314290Y-89158779D01*
X143468184Y-88737468D01*
X142559069Y-88478803D01*
X141617904Y-88391591D01*
X140676739Y-88478803D01*
X139767624Y-88737468D01*
X138921518Y-89158779D01*
X138167235Y-89728387D01*
X137530460Y-90426896D01*
X137032878Y-91230519D01*
X136691433Y-92111889D01*
X136517754Y-93040992D01*
X122469904Y-93040992D01*
X122469904Y-86605834D01*
X132994199Y-86605834D01*
X132994199Y-86982670D01*
X133067717Y-87352266D01*
X133211926Y-87700418D01*
X133421285Y-88013746D01*
X133687749Y-88280210D01*
X134001077Y-88489569D01*
X134349229Y-88633778D01*
X134718825Y-88707296D01*
X135095661Y-88707296D01*
X135465257Y-88633778D01*
X135813409Y-88489569D01*
X136126737Y-88280210D01*
X136393201Y-88013746D01*
X136602560Y-87700418D01*
X136746769Y-87352266D01*
X136820287Y-86982670D01*
X136820287Y-86605834D01*
X136746769Y-86236238D01*
X136602560Y-85888086D01*
X136393201Y-85574758D01*
X136126737Y-85308294D01*
X135813409Y-85098935D01*
X135465257Y-84954726D01*
X135095661Y-84881208D01*
X134718825Y-84881208D01*
X134349229Y-84954726D01*
X134001077Y-85098935D01*
X133687749Y-85308294D01*
X133421285Y-85574758D01*
X133211926Y-85888086D01*
X133067717Y-86236238D01*
X132994199Y-86605834D01*
X122469904Y-86605834D01*
X122469904Y-84996299D01*
X122468389Y-84980913D01*
X122468432Y-84974706D01*
X122467952Y-84969815D01*
X122447551Y-84775718D01*
X122441132Y-84744446D01*
X122435158Y-84713129D01*
X122433737Y-84708424D01*
X122376025Y-84521986D01*
X122363678Y-84492615D01*
X122360672Y-84485173D01*
X148544860Y-84485173D01*
X148544860Y-84862009D01*
X148618378Y-85231605D01*
X148762587Y-85579757D01*
X148971946Y-85893085D01*
X149238410Y-86159549D01*
X149551738Y-86368908D01*
X149899890Y-86513117D01*
X150269486Y-86586635D01*
X150646322Y-86586635D01*
X151015918Y-86513117D01*
X151364070Y-86368908D01*
X151677398Y-86159549D01*
X151943862Y-85893085D01*
X152153221Y-85579757D01*
X152297430Y-85231605D01*
X152370948Y-84862009D01*
X152370948Y-84485173D01*
X152297430Y-84115577D01*
X152153221Y-83767425D01*
X151943862Y-83454097D01*
X151677398Y-83187633D01*
X151364070Y-82978274D01*
X151015918Y-82834065D01*
X150646322Y-82760547D01*
X150269486Y-82760547D01*
X149899890Y-82834065D01*
X149551738Y-82978274D01*
X149238410Y-83187633D01*
X148971946Y-83454097D01*
X148762587Y-83767425D01*
X148618378Y-84115577D01*
X148544860Y-84485173D01*
X122360672Y-84485173D01*
X122351711Y-84462995D01*
X122349403Y-84458656D01*
X122256579Y-84286979D01*
X122238746Y-84260541D01*
X122221269Y-84233833D01*
X122218162Y-84230024D01*
X122093758Y-84079646D01*
X122071145Y-84057191D01*
X122048800Y-84034372D01*
X122045012Y-84031240D01*
X121893770Y-83907890D01*
X121867246Y-83890267D01*
X121840874Y-83872210D01*
X121836550Y-83869872D01*
X121664228Y-83778247D01*
X121634738Y-83766092D01*
X121605409Y-83753522D01*
X121600713Y-83752069D01*
X121413877Y-83695659D01*
X121382585Y-83689463D01*
X121351375Y-83682829D01*
X121346487Y-83682316D01*
X121152254Y-83663271D01*
X121135196Y-83661591D01*
X116969904Y-83661591D01*
X116969904Y-80529263D01*
X117044739Y-79690749D01*
X117262728Y-78893916D01*
X117360905Y-78688085D01*
X117360905Y-80722270D01*
X117363345Y-80747046D01*
X117370572Y-80770871D01*
X117382308Y-80792827D01*
X117398102Y-80812073D01*
X119298102Y-82712073D01*
X119317348Y-82727867D01*
X119339304Y-82739603D01*
X119363129Y-82746830D01*
X119387905Y-82749270D01*
X121787905Y-82749270D01*
X121812681Y-82746830D01*
X121836506Y-82739603D01*
X121858462Y-82727867D01*
X121877708Y-82712073D01*
X123777708Y-80812073D01*
X123793502Y-80792827D01*
X123805238Y-80770871D01*
X123812465Y-80747046D01*
X123814905Y-80722270D01*
X123814905Y-78322270D01*
X123812465Y-78297494D01*
X123805238Y-78273669D01*
X123793502Y-78251713D01*
X123777708Y-78232467D01*
X121877708Y-76332467D01*
X121858462Y-76316673D01*
X121836506Y-76304937D01*
X121812681Y-76297710D01*
X121787905Y-76295270D01*
X119713063Y-76295270D01*
X120135828Y-76109689D01*
X120941820Y-75916187D01*
X121630815Y-75865591D01*
X131265905Y-75865591D01*
X131265905Y-76030883D01*
G04 #@! TA.AperFunction,Conductor*
D12*
G36*
X131265905Y-76030883D02*
G01*
X131267419Y-76046260D01*
X131267376Y-76052475D01*
X131267856Y-76057367D01*
X131288257Y-76251464D01*
X131294676Y-76282736D01*
X131300650Y-76314053D01*
X131302071Y-76318758D01*
X131359783Y-76505196D01*
X131372130Y-76534567D01*
X131384097Y-76564187D01*
X131386404Y-76568526D01*
X131479229Y-76740203D01*
X131497062Y-76766641D01*
X131514539Y-76793349D01*
X131517646Y-76797158D01*
X131642050Y-76947536D01*
X131664663Y-76969991D01*
X131687008Y-76992810D01*
X131690796Y-76995942D01*
X131842038Y-77119292D01*
X131868580Y-77136927D01*
X131894935Y-77154972D01*
X131899258Y-77157310D01*
X132071581Y-77248935D01*
X132101071Y-77261090D01*
X132130400Y-77273660D01*
X132135095Y-77275114D01*
X132321931Y-77331523D01*
X132353208Y-77337716D01*
X132384432Y-77344353D01*
X132389320Y-77344866D01*
X132583554Y-77363911D01*
X132600612Y-77365591D01*
X150635196Y-77365591D01*
X150650582Y-77364076D01*
X150656788Y-77364119D01*
X150661680Y-77363639D01*
X150855777Y-77343238D01*
X150887049Y-77336819D01*
X150918366Y-77330845D01*
X150923069Y-77329425D01*
X150923075Y-77329423D01*
X151109509Y-77271712D01*
X151138880Y-77259365D01*
X151168500Y-77247398D01*
X151172839Y-77245091D01*
X151344516Y-77152266D01*
X151370954Y-77134433D01*
X151397662Y-77116956D01*
X151401471Y-77113849D01*
X151551849Y-76989445D01*
X151574304Y-76966832D01*
X151597123Y-76944487D01*
X151600255Y-76940699D01*
X151723605Y-76789457D01*
X151741240Y-76762915D01*
X151759285Y-76736560D01*
X151761623Y-76732237D01*
X151853248Y-76559914D01*
X151865403Y-76530424D01*
X151877973Y-76501095D01*
X151879427Y-76496400D01*
X151935836Y-76309564D01*
X151942029Y-76278287D01*
X151948666Y-76247063D01*
X151949179Y-76242175D01*
X151968224Y-76047941D01*
X151969904Y-76030883D01*
X151969904Y-75865591D01*
X161602232Y-75865591D01*
X162440746Y-75940426D01*
X163237579Y-76158415D01*
X163524500Y-76295270D01*
X161387905Y-76295270D01*
X161363129Y-76297710D01*
X161339304Y-76304937D01*
X161317348Y-76316673D01*
X161298102Y-76332467D01*
X159398102Y-78232467D01*
X159382308Y-78251713D01*
X159370572Y-78273669D01*
X159363345Y-78297494D01*
X159360905Y-78322270D01*
X159360905Y-80722270D01*
X159363345Y-80747046D01*
X159370572Y-80770871D01*
X159382308Y-80792827D01*
X159398102Y-80812073D01*
X161298102Y-82712073D01*
X161317348Y-82727867D01*
X161339304Y-82739603D01*
X161363129Y-82746830D01*
X161387905Y-82749270D01*
X163787905Y-82749270D01*
X163812681Y-82746830D01*
X163836506Y-82739603D01*
X163858462Y-82727867D01*
X163877708Y-82712073D01*
X165777708Y-80812073D01*
X165793502Y-80792827D01*
X165805238Y-80770871D01*
X165812465Y-80747046D01*
X165814905Y-80722270D01*
X165814905Y-78560182D01*
X166021806Y-79031515D01*
X166215308Y-79837507D01*
X166265905Y-80526516D01*
X166265904Y-83661591D01*
X161100612Y-83661591D01*
X161085226Y-83663106D01*
X161079019Y-83663063D01*
X161074128Y-83663543D01*
X160880031Y-83683944D01*
X160848759Y-83690363D01*
X160817442Y-83696337D01*
X160812739Y-83697757D01*
X160812733Y-83697759D01*
X160626299Y-83755470D01*
X160596928Y-83767817D01*
X160567308Y-83779784D01*
X160562969Y-83782092D01*
X160391292Y-83874916D01*
X160364854Y-83892749D01*
X160338146Y-83910226D01*
X160334337Y-83913333D01*
X160183959Y-84037737D01*
X160161504Y-84060350D01*
X160138685Y-84082695D01*
X160135553Y-84086483D01*
X160012203Y-84237725D01*
X159994580Y-84264249D01*
X159976523Y-84290621D01*
X159974185Y-84294945D01*
X159882560Y-84467267D01*
X159870405Y-84496757D01*
X159857835Y-84526086D01*
X159856382Y-84530782D01*
X159799972Y-84717618D01*
X159793776Y-84748910D01*
X159787142Y-84780120D01*
X159786629Y-84785008D01*
X159767584Y-84979241D01*
X159765904Y-84996300D01*
X159765905Y-102030883D01*
X159767419Y-102046260D01*
X159767376Y-102052475D01*
X159767856Y-102057367D01*
X159788257Y-102251464D01*
X159794676Y-102282736D01*
X159800650Y-102314053D01*
X159802071Y-102318758D01*
X159859783Y-102505196D01*
X159872130Y-102534567D01*
X159884097Y-102564187D01*
X159886404Y-102568526D01*
X159979229Y-102740203D01*
X159997062Y-102766641D01*
X160014539Y-102793349D01*
X160017646Y-102797158D01*
X160142050Y-102947536D01*
X160164663Y-102969991D01*
X160187008Y-102992810D01*
X160190796Y-102995942D01*
X160342038Y-103119292D01*
X160368580Y-103136927D01*
X160394935Y-103154972D01*
X160399258Y-103157310D01*
X160571581Y-103248935D01*
X160601071Y-103261090D01*
X160630400Y-103273660D01*
X160635095Y-103275114D01*
X160821931Y-103331523D01*
X160853208Y-103337716D01*
X160884432Y-103344353D01*
X160889320Y-103344866D01*
X161083554Y-103363911D01*
X161100612Y-103365591D01*
X166265905Y-103365591D01*
X166265904Y-106497919D01*
X166191069Y-107336433D01*
X165973080Y-108133264D01*
X165814905Y-108464885D01*
X165814905Y-106322270D01*
X165812465Y-106297494D01*
X165805238Y-106273669D01*
X165793502Y-106251713D01*
X165777708Y-106232467D01*
X163877708Y-104332467D01*
X163858462Y-104316673D01*
X163836506Y-104304937D01*
X163812681Y-104297710D01*
X163787905Y-104295270D01*
X161387905Y-104295270D01*
X161363129Y-104297710D01*
X161339304Y-104304937D01*
X161317348Y-104316673D01*
X161298102Y-104332467D01*
X159398102Y-106232467D01*
X159382308Y-106251713D01*
X159370572Y-106273669D01*
X159363345Y-106297494D01*
X159360905Y-106322270D01*
X159360905Y-108722270D01*
X159363345Y-108747046D01*
X159370572Y-108770871D01*
X159382308Y-108792827D01*
X159398102Y-108812073D01*
X161298102Y-110712073D01*
X161317348Y-110727867D01*
X161339304Y-110739603D01*
X161363129Y-110746830D01*
X161387905Y-110749270D01*
X163483202Y-110749270D01*
X163099980Y-110917493D01*
X162293988Y-111110995D01*
X161604993Y-111161591D01*
X151969904Y-111161591D01*
X151969904Y-110996299D01*
X151968389Y-110980913D01*
X151968432Y-110974706D01*
X151967952Y-110969815D01*
X151947551Y-110775718D01*
X151941132Y-110744446D01*
X151935158Y-110713129D01*
X151933737Y-110708424D01*
X151876025Y-110521986D01*
X151863678Y-110492615D01*
X151851711Y-110462995D01*
X151849403Y-110458656D01*
X151756579Y-110286979D01*
X151738746Y-110260541D01*
X151721269Y-110233833D01*
X151718162Y-110230024D01*
X151593758Y-110079646D01*
X151571145Y-110057191D01*
X151548800Y-110034372D01*
X151545012Y-110031240D01*
X151393770Y-109907890D01*
X151367246Y-109890267D01*
X151340874Y-109872210D01*
X151336550Y-109869872D01*
X151164228Y-109778247D01*
X151134738Y-109766092D01*
X151105409Y-109753522D01*
X151100713Y-109752069D01*
X150913877Y-109695659D01*
X150882585Y-109689463D01*
X150851375Y-109682829D01*
X150846487Y-109682316D01*
X150652254Y-109663271D01*
X150635196Y-109661591D01*
X132600612Y-109661591D01*
X132585226Y-109663106D01*
X132579019Y-109663063D01*
X132574128Y-109663543D01*
X132380031Y-109683944D01*
X132348759Y-109690363D01*
X132317442Y-109696337D01*
X132312739Y-109697757D01*
X132312733Y-109697759D01*
X132126299Y-109755470D01*
X132096928Y-109767817D01*
X132067308Y-109779784D01*
X132062969Y-109782092D01*
X131891292Y-109874916D01*
X131864854Y-109892749D01*
X131838146Y-109910226D01*
X131834337Y-109913333D01*
X131683959Y-110037737D01*
X131661504Y-110060350D01*
X131638685Y-110082695D01*
X131635553Y-110086483D01*
X131512203Y-110237725D01*
X131494580Y-110264249D01*
X131476523Y-110290621D01*
X131474185Y-110294945D01*
X131382560Y-110467267D01*
X131370405Y-110496757D01*
X131357835Y-110526086D01*
X131356382Y-110530782D01*
X131299972Y-110717618D01*
X131293776Y-110748910D01*
X131287142Y-110780120D01*
X131286629Y-110785008D01*
X131267633Y-110978746D01*
X131265904Y-110996300D01*
X131265904Y-111161591D01*
X121633576Y-111161591D01*
X120795062Y-111086756D01*
X119998231Y-110868767D01*
X119747700Y-110749270D01*
X121787905Y-110749270D01*
X121812681Y-110746830D01*
X121836506Y-110739603D01*
X121858462Y-110727867D01*
X121877708Y-110712073D01*
X123777708Y-108812073D01*
X123793502Y-108792827D01*
X123805238Y-108770871D01*
X123812465Y-108747046D01*
X123814905Y-108722270D01*
X123814905Y-106322270D01*
X123812465Y-106297494D01*
X123805238Y-106273669D01*
X123793502Y-106251713D01*
X123777708Y-106232467D01*
X121877708Y-104332467D01*
X121858462Y-104316673D01*
X121836506Y-104304937D01*
X121812681Y-104297710D01*
X121787905Y-104295270D01*
X119387905Y-104295270D01*
X119363129Y-104297710D01*
X119339304Y-104304937D01*
X119317348Y-104316673D01*
X119298102Y-104332467D01*
X117398102Y-106232467D01*
X117382308Y-106251713D01*
X117370572Y-106273669D01*
X117363345Y-106297494D01*
X117360905Y-106322270D01*
X117360905Y-108330321D01*
X117214002Y-107995667D01*
X117020500Y-107189675D01*
X116969904Y-106500680D01*
X116969904Y-103365591D01*
X121135196Y-103365591D01*
X121150582Y-103364076D01*
X121156788Y-103364119D01*
X121161680Y-103363639D01*
X121355777Y-103343238D01*
X121387049Y-103336819D01*
X121418366Y-103330845D01*
X121423069Y-103329425D01*
X121423075Y-103329423D01*
X121609509Y-103271712D01*
X121638880Y-103259365D01*
X121668500Y-103247398D01*
X121672839Y-103245091D01*
X121844516Y-103152266D01*
X121870954Y-103134433D01*
X121897662Y-103116956D01*
X121901471Y-103113849D01*
X122051849Y-102989445D01*
X122074304Y-102966832D01*
X122097123Y-102944487D01*
X122100255Y-102940699D01*
X122223605Y-102789457D01*
X122241240Y-102762915D01*
X122259285Y-102736560D01*
X122261623Y-102732237D01*
X122353248Y-102559914D01*
X122365403Y-102530424D01*
X122377973Y-102501095D01*
X122379427Y-102496400D01*
X122435836Y-102309564D01*
X122442029Y-102278287D01*
X122448666Y-102247063D01*
X122449179Y-102242175D01*
X122456729Y-102165173D01*
X130864860Y-102165173D01*
X130864860Y-102542009D01*
X130938378Y-102911605D01*
X131082587Y-103259757D01*
X131291946Y-103573085D01*
X131558410Y-103839549D01*
X131871738Y-104048908D01*
X132219890Y-104193117D01*
X132589486Y-104266635D01*
X132966322Y-104266635D01*
X133335918Y-104193117D01*
X133684070Y-104048908D01*
X133997398Y-103839549D01*
X134263862Y-103573085D01*
X134473221Y-103259757D01*
X134617430Y-102911605D01*
X134690948Y-102542009D01*
X134690948Y-102165173D01*
X134617430Y-101795577D01*
X134473221Y-101447425D01*
X134263862Y-101134097D01*
X133997398Y-100867633D01*
X133684070Y-100658274D01*
X133335918Y-100514065D01*
X132966322Y-100440547D01*
X132589486Y-100440547D01*
X132219890Y-100514065D01*
X131871738Y-100658274D01*
X131558410Y-100867633D01*
X131291946Y-101134097D01*
X131082587Y-101447425D01*
X130938378Y-101795577D01*
X130864860Y-102165173D01*
X122456729Y-102165173D01*
X122468224Y-102047941D01*
X122469904Y-102030883D01*
X122469904Y-100045173D01*
X146424860Y-100045173D01*
X146424860Y-100422009D01*
X146498378Y-100791605D01*
X146642587Y-101139757D01*
X146851946Y-101453085D01*
X147118410Y-101719549D01*
X147431738Y-101928908D01*
X147779890Y-102073117D01*
X148149486Y-102146635D01*
X148526322Y-102146635D01*
X148895918Y-102073117D01*
X149244070Y-101928908D01*
X149557398Y-101719549D01*
X149823862Y-101453085D01*
X150033221Y-101139757D01*
X150177430Y-100791605D01*
X150250948Y-100422009D01*
X150250948Y-100045173D01*
X150177430Y-99675577D01*
X150033221Y-99327425D01*
X149823862Y-99014097D01*
X149557398Y-98747633D01*
X149244070Y-98538274D01*
X148895918Y-98394065D01*
X148526322Y-98320547D01*
X148149486Y-98320547D01*
X147779890Y-98394065D01*
X147431738Y-98538274D01*
X147118410Y-98747633D01*
X146851946Y-99014097D01*
X146642587Y-99327425D01*
X146498378Y-99675577D01*
X146424860Y-100045173D01*
X122469904Y-100045173D01*
X122469904Y-93040992D01*
X136517754Y-93040992D01*
X136517754Y-93986190D01*
X136691433Y-94915293D01*
X137032878Y-95796663D01*
X137530460Y-96600286D01*
X138167235Y-97298795D01*
X138921518Y-97868403D01*
X139767624Y-98289714D01*
X140676739Y-98548379D01*
X141617904Y-98635591D01*
X142559069Y-98548379D01*
X143468184Y-98289714D01*
X144314290Y-97868403D01*
X145068573Y-97298795D01*
X145705348Y-96600286D01*
X146202930Y-95796663D01*
X146544375Y-94915293D01*
X146718054Y-93986190D01*
X146718054Y-93040992D01*
X146544375Y-92111889D01*
X146202930Y-91230519D01*
X145705348Y-90426896D01*
X145068573Y-89728387D01*
X144314290Y-89158779D01*
X143468184Y-88737468D01*
X142559069Y-88478803D01*
X141617904Y-88391591D01*
X140676739Y-88478803D01*
X139767624Y-88737468D01*
X138921518Y-89158779D01*
X138167235Y-89728387D01*
X137530460Y-90426896D01*
X137032878Y-91230519D01*
X136691433Y-92111889D01*
X136517754Y-93040992D01*
X122469904Y-93040992D01*
X122469904Y-86605834D01*
X132994199Y-86605834D01*
X132994199Y-86982670D01*
X133067717Y-87352266D01*
X133211926Y-87700418D01*
X133421285Y-88013746D01*
X133687749Y-88280210D01*
X134001077Y-88489569D01*
X134349229Y-88633778D01*
X134718825Y-88707296D01*
X135095661Y-88707296D01*
X135465257Y-88633778D01*
X135813409Y-88489569D01*
X136126737Y-88280210D01*
X136393201Y-88013746D01*
X136602560Y-87700418D01*
X136746769Y-87352266D01*
X136820287Y-86982670D01*
X136820287Y-86605834D01*
X136746769Y-86236238D01*
X136602560Y-85888086D01*
X136393201Y-85574758D01*
X136126737Y-85308294D01*
X135813409Y-85098935D01*
X135465257Y-84954726D01*
X135095661Y-84881208D01*
X134718825Y-84881208D01*
X134349229Y-84954726D01*
X134001077Y-85098935D01*
X133687749Y-85308294D01*
X133421285Y-85574758D01*
X133211926Y-85888086D01*
X133067717Y-86236238D01*
X132994199Y-86605834D01*
X122469904Y-86605834D01*
X122469904Y-84996299D01*
X122468389Y-84980913D01*
X122468432Y-84974706D01*
X122467952Y-84969815D01*
X122447551Y-84775718D01*
X122441132Y-84744446D01*
X122435158Y-84713129D01*
X122433737Y-84708424D01*
X122376025Y-84521986D01*
X122363678Y-84492615D01*
X122360672Y-84485173D01*
X148544860Y-84485173D01*
X148544860Y-84862009D01*
X148618378Y-85231605D01*
X148762587Y-85579757D01*
X148971946Y-85893085D01*
X149238410Y-86159549D01*
X149551738Y-86368908D01*
X149899890Y-86513117D01*
X150269486Y-86586635D01*
X150646322Y-86586635D01*
X151015918Y-86513117D01*
X151364070Y-86368908D01*
X151677398Y-86159549D01*
X151943862Y-85893085D01*
X152153221Y-85579757D01*
X152297430Y-85231605D01*
X152370948Y-84862009D01*
X152370948Y-84485173D01*
X152297430Y-84115577D01*
X152153221Y-83767425D01*
X151943862Y-83454097D01*
X151677398Y-83187633D01*
X151364070Y-82978274D01*
X151015918Y-82834065D01*
X150646322Y-82760547D01*
X150269486Y-82760547D01*
X149899890Y-82834065D01*
X149551738Y-82978274D01*
X149238410Y-83187633D01*
X148971946Y-83454097D01*
X148762587Y-83767425D01*
X148618378Y-84115577D01*
X148544860Y-84485173D01*
X122360672Y-84485173D01*
X122351711Y-84462995D01*
X122349403Y-84458656D01*
X122256579Y-84286979D01*
X122238746Y-84260541D01*
X122221269Y-84233833D01*
X122218162Y-84230024D01*
X122093758Y-84079646D01*
X122071145Y-84057191D01*
X122048800Y-84034372D01*
X122045012Y-84031240D01*
X121893770Y-83907890D01*
X121867246Y-83890267D01*
X121840874Y-83872210D01*
X121836550Y-83869872D01*
X121664228Y-83778247D01*
X121634738Y-83766092D01*
X121605409Y-83753522D01*
X121600713Y-83752069D01*
X121413877Y-83695659D01*
X121382585Y-83689463D01*
X121351375Y-83682829D01*
X121346487Y-83682316D01*
X121152254Y-83663271D01*
X121135196Y-83661591D01*
X116969904Y-83661591D01*
X116969904Y-80529263D01*
X117044739Y-79690749D01*
X117262728Y-78893916D01*
X117360905Y-78688085D01*
X117360905Y-80722270D01*
X117363345Y-80747046D01*
X117370572Y-80770871D01*
X117382308Y-80792827D01*
X117398102Y-80812073D01*
X119298102Y-82712073D01*
X119317348Y-82727867D01*
X119339304Y-82739603D01*
X119363129Y-82746830D01*
X119387905Y-82749270D01*
X121787905Y-82749270D01*
X121812681Y-82746830D01*
X121836506Y-82739603D01*
X121858462Y-82727867D01*
X121877708Y-82712073D01*
X123777708Y-80812073D01*
X123793502Y-80792827D01*
X123805238Y-80770871D01*
X123812465Y-80747046D01*
X123814905Y-80722270D01*
X123814905Y-78322270D01*
X123812465Y-78297494D01*
X123805238Y-78273669D01*
X123793502Y-78251713D01*
X123777708Y-78232467D01*
X121877708Y-76332467D01*
X121858462Y-76316673D01*
X121836506Y-76304937D01*
X121812681Y-76297710D01*
X121787905Y-76295270D01*
X119713063Y-76295270D01*
X120135828Y-76109689D01*
X120941820Y-75916187D01*
X121630815Y-75865591D01*
X131265905Y-75865591D01*
X131265905Y-76030883D01*
G37*
G04 #@! TD.AperFunction*
M02*
