G04 #@! TF.GenerationSoftware,KiCad,Pcbnew,(5.1.9)-1*
G04 #@! TF.CreationDate,2021-08-06T09:52:32+02:00*
G04 #@! TF.ProjectId,Driver,44726976-6572-42e6-9b69-6361645f7063,rev?*
G04 #@! TF.SameCoordinates,Original*
G04 #@! TF.FileFunction,Legend,Bot*
G04 #@! TF.FilePolarity,Positive*
%FSLAX46Y46*%
G04 Gerber Fmt 4.6, Leading zero omitted, Abs format (unit mm)*
G04 Created by KiCad (PCBNEW (5.1.9)-1) date 2021-08-06 09:52:32*
%MOMM*%
%LPD*%
G01*
G04 APERTURE LIST*
%ADD10C,0.300000*%
%ADD11C,0.150000*%
%ADD12C,0.200000*%
G04 APERTURE END LIST*
D10*
X156617904Y-93513591D02*
G75*
G03*
X156617904Y-93513591I-15000000J0D01*
G01*
D11*
X124045284Y-86212400D02*
X123045284Y-86212400D01*
X123045284Y-86593352D01*
X123092904Y-86688591D01*
X123140523Y-86736210D01*
X123235761Y-86783829D01*
X123378618Y-86783829D01*
X123473856Y-86736210D01*
X123521475Y-86688591D01*
X123569094Y-86593352D01*
X123569094Y-86212400D01*
X124045284Y-87355257D02*
X123997665Y-87260019D01*
X123950046Y-87212400D01*
X123854808Y-87164781D01*
X123569094Y-87164781D01*
X123473856Y-87212400D01*
X123426237Y-87260019D01*
X123378618Y-87355257D01*
X123378618Y-87498114D01*
X123426237Y-87593352D01*
X123473856Y-87640971D01*
X123569094Y-87688591D01*
X123854808Y-87688591D01*
X123950046Y-87640971D01*
X123997665Y-87593352D01*
X124045284Y-87498114D01*
X124045284Y-87355257D01*
X123378618Y-88021924D02*
X124045284Y-88212400D01*
X123569094Y-88402876D01*
X124045284Y-88593352D01*
X123378618Y-88783829D01*
X123997665Y-89545733D02*
X124045284Y-89450495D01*
X124045284Y-89260019D01*
X123997665Y-89164781D01*
X123902427Y-89117162D01*
X123521475Y-89117162D01*
X123426237Y-89164781D01*
X123378618Y-89260019D01*
X123378618Y-89450495D01*
X123426237Y-89545733D01*
X123521475Y-89593352D01*
X123616713Y-89593352D01*
X123711951Y-89117162D01*
X124045284Y-90021924D02*
X123378618Y-90021924D01*
X123569094Y-90021924D02*
X123473856Y-90069543D01*
X123426237Y-90117162D01*
X123378618Y-90212400D01*
X123378618Y-90307638D01*
D12*
X159117904Y-93513591D02*
G75*
G03*
X159117904Y-93513591I-17500000J0D01*
G01*
D10*
X148736951Y-83418352D02*
X148736951Y-81418352D01*
X148070284Y-82846924D01*
X147403618Y-81418352D01*
X147403618Y-83418352D01*
X146165523Y-83418352D02*
X146355999Y-83323114D01*
X146451237Y-83227876D01*
X146546475Y-83037400D01*
X146546475Y-82465971D01*
X146451237Y-82275495D01*
X146355999Y-82180257D01*
X146165523Y-82085019D01*
X145879808Y-82085019D01*
X145689332Y-82180257D01*
X145594094Y-82275495D01*
X145498856Y-82465971D01*
X145498856Y-83037400D01*
X145594094Y-83227876D01*
X145689332Y-83323114D01*
X145879808Y-83418352D01*
X146165523Y-83418352D01*
X144927427Y-82085019D02*
X144165523Y-82085019D01*
X144641713Y-81418352D02*
X144641713Y-83132638D01*
X144546475Y-83323114D01*
X144355999Y-83418352D01*
X144165523Y-83418352D01*
X143213142Y-83418352D02*
X143403618Y-83323114D01*
X143498856Y-83227876D01*
X143594094Y-83037400D01*
X143594094Y-82465971D01*
X143498856Y-82275495D01*
X143403618Y-82180257D01*
X143213142Y-82085019D01*
X142927427Y-82085019D01*
X142736951Y-82180257D01*
X142641713Y-82275495D01*
X142546475Y-82465971D01*
X142546475Y-83037400D01*
X142641713Y-83227876D01*
X142736951Y-83323114D01*
X142927427Y-83418352D01*
X143213142Y-83418352D01*
X141689332Y-83418352D02*
X141689332Y-82085019D01*
X141689332Y-82465971D02*
X141594094Y-82275495D01*
X141498856Y-82180257D01*
X141308380Y-82085019D01*
X141117904Y-82085019D01*
X139022665Y-83323114D02*
X138736951Y-83418352D01*
X138260761Y-83418352D01*
X138070284Y-83323114D01*
X137975046Y-83227876D01*
X137879808Y-83037400D01*
X137879808Y-82846924D01*
X137975046Y-82656448D01*
X138070284Y-82561210D01*
X138260761Y-82465971D01*
X138641713Y-82370733D01*
X138832189Y-82275495D01*
X138927427Y-82180257D01*
X139022665Y-81989781D01*
X139022665Y-81799305D01*
X138927427Y-81608829D01*
X138832189Y-81513591D01*
X138641713Y-81418352D01*
X138165523Y-81418352D01*
X137879808Y-81513591D01*
X137022665Y-83418352D02*
X137022665Y-82085019D01*
X137022665Y-81418352D02*
X137117904Y-81513591D01*
X137022665Y-81608829D01*
X136927427Y-81513591D01*
X137022665Y-81418352D01*
X137022665Y-81608829D01*
X135213142Y-83418352D02*
X135213142Y-81418352D01*
X135213142Y-83323114D02*
X135403618Y-83418352D01*
X135784570Y-83418352D01*
X135975046Y-83323114D01*
X136070284Y-83227876D01*
X136165523Y-83037400D01*
X136165523Y-82465971D01*
X136070284Y-82275495D01*
X135975046Y-82180257D01*
X135784570Y-82085019D01*
X135403618Y-82085019D01*
X135213142Y-82180257D01*
X133498856Y-83323114D02*
X133689332Y-83418352D01*
X134070284Y-83418352D01*
X134260761Y-83323114D01*
X134355999Y-83132638D01*
X134355999Y-82370733D01*
X134260761Y-82180257D01*
X134070284Y-82085019D01*
X133689332Y-82085019D01*
X133498856Y-82180257D01*
X133403618Y-82370733D01*
X133403618Y-82561210D01*
X134355999Y-82751686D01*
%LPC*%
M02*
