M48
METRIC
T1C0.300
%
G90
G05
T1
X124.118Y-93.514
X124.118Y-96.014
X124.118Y-98.514
X124.118Y-101.014
X124.118Y-103.514
X125.368Y-97.264
X125.368Y-99.764
X126.618Y-93.514
X126.618Y-96.014
X126.618Y-98.514
X126.618Y-101.014
X126.618Y-103.514
X127.868Y-97.264
X127.868Y-99.764
X129.118Y-93.514
X129.118Y-96.014
X129.118Y-98.514
X129.118Y-101.014
X129.118Y-103.514
X130.368Y-97.264
X131.618Y-93.514
X131.618Y-96.014
X131.618Y-98.514
X134.118Y-93.514
X162.618Y-82.514
T0
M30
