G04 #@! TF.GenerationSoftware,KiCad,Pcbnew,(5.1.9)-1*
G04 #@! TF.CreationDate,2021-08-06T09:53:28+02:00*
G04 #@! TF.ProjectId,Driver,44726976-6572-42e6-9b69-6361645f7063,rev?*
G04 #@! TF.SameCoordinates,Original*
G04 #@! TF.FileFunction,Copper,L1,Top*
G04 #@! TF.FilePolarity,Positive*
%FSLAX46Y46*%
G04 Gerber Fmt 4.6, Leading zero omitted, Abs format (unit mm)*
G04 Created by KiCad (PCBNEW (5.1.9)-1) date 2021-08-06 09:53:28*
%MOMM*%
%LPD*%
G01*
G04 APERTURE LIST*
G04 #@! TA.AperFunction,ComponentPad*
%ADD10C,0.600000*%
G04 #@! TD*
G04 #@! TA.AperFunction,ViaPad*
%ADD11C,0.600000*%
G04 #@! TD*
G04 #@! TA.AperFunction,Conductor*
%ADD12C,0.254000*%
G04 #@! TD*
G04 #@! TA.AperFunction,Conductor*
%ADD13C,0.100000*%
G04 #@! TD*
G04 APERTURE END LIST*
D10*
X162617904Y-82513591D03*
D11*
X131617904Y-93513591D03*
X129117904Y-93513591D03*
X126617904Y-93513591D03*
X124117904Y-93513591D03*
X124117904Y-96013591D03*
X126617904Y-96013591D03*
X129117904Y-96013591D03*
X131617904Y-96013591D03*
X131617904Y-98513591D03*
X129117904Y-98513591D03*
X124117904Y-98513591D03*
X126617904Y-98513591D03*
X124117904Y-101013591D03*
X126617904Y-101013591D03*
X129117904Y-101013591D03*
X124117904Y-103513591D03*
X126617904Y-103513591D03*
X129117904Y-103513591D03*
X134117904Y-93513591D03*
X127867904Y-97263591D03*
X130367904Y-97263591D03*
X125367904Y-97263591D03*
X125367904Y-99763591D03*
X127867904Y-99763591D03*
D12*
X131255905Y-76031370D02*
X131257461Y-76047172D01*
X131257418Y-76053382D01*
X131257911Y-76058412D01*
X131278312Y-76252509D01*
X131284911Y-76284657D01*
X131291057Y-76316877D01*
X131292518Y-76321715D01*
X131350230Y-76508153D01*
X131362956Y-76538427D01*
X131375235Y-76568820D01*
X131377606Y-76573278D01*
X131377608Y-76573283D01*
X131377611Y-76573287D01*
X131470433Y-76744959D01*
X131488744Y-76772106D01*
X131506746Y-76799616D01*
X131509941Y-76803532D01*
X131634344Y-76953910D01*
X131657650Y-76977053D01*
X131680581Y-77000470D01*
X131684475Y-77003692D01*
X131835717Y-77127042D01*
X131863051Y-77145203D01*
X131890118Y-77163736D01*
X131894559Y-77166136D01*
X131894563Y-77166139D01*
X131894567Y-77166141D01*
X132066886Y-77257764D01*
X132097237Y-77270274D01*
X132127377Y-77283192D01*
X132132205Y-77284687D01*
X132319041Y-77341096D01*
X132351279Y-77347479D01*
X132383318Y-77354290D01*
X132388336Y-77354817D01*
X132388346Y-77354819D01*
X132388355Y-77354819D01*
X132582578Y-77373863D01*
X132582579Y-77373863D01*
X132600125Y-77375591D01*
X150635683Y-77375591D01*
X150651495Y-77374034D01*
X150657695Y-77374077D01*
X150662725Y-77373584D01*
X150856822Y-77353183D01*
X150888970Y-77346584D01*
X150921190Y-77340438D01*
X150926026Y-77338978D01*
X150926032Y-77338976D01*
X151112466Y-77281265D01*
X151142740Y-77268539D01*
X151173133Y-77256260D01*
X151177591Y-77253889D01*
X151177596Y-77253887D01*
X151177600Y-77253884D01*
X151349272Y-77161062D01*
X151376447Y-77142732D01*
X151403929Y-77124749D01*
X151407845Y-77121554D01*
X151558223Y-76997151D01*
X151581366Y-76973845D01*
X151604783Y-76950914D01*
X151608005Y-76947020D01*
X151731355Y-76795778D01*
X151749516Y-76768444D01*
X151768049Y-76741377D01*
X151770449Y-76736936D01*
X151770452Y-76736932D01*
X151770454Y-76736928D01*
X151862077Y-76564609D01*
X151874587Y-76534258D01*
X151887505Y-76504118D01*
X151889000Y-76499290D01*
X151945409Y-76312454D01*
X151951792Y-76280216D01*
X151958603Y-76248177D01*
X151959130Y-76243159D01*
X151959132Y-76243149D01*
X151959132Y-76243140D01*
X151978176Y-76048917D01*
X151978176Y-76048916D01*
X151979904Y-76031370D01*
X151979904Y-75875591D01*
X161601780Y-75875591D01*
X162438968Y-75950308D01*
X163234080Y-76167826D01*
X163978107Y-76522709D01*
X164647525Y-77003735D01*
X165221191Y-77595711D01*
X165680953Y-78279911D01*
X166012290Y-79034717D01*
X166205394Y-79839054D01*
X166255905Y-80526880D01*
X166255904Y-83651591D01*
X161100125Y-83651591D01*
X161084313Y-83653148D01*
X161078112Y-83653105D01*
X161073082Y-83653598D01*
X160878986Y-83673999D01*
X160846831Y-83680599D01*
X160814618Y-83686744D01*
X160809784Y-83688204D01*
X160809778Y-83688205D01*
X160809772Y-83688207D01*
X160623342Y-83745917D01*
X160593068Y-83758643D01*
X160562675Y-83770922D01*
X160558212Y-83773295D01*
X160386536Y-83866120D01*
X160359361Y-83884450D01*
X160331879Y-83902433D01*
X160327963Y-83905628D01*
X160177585Y-84030032D01*
X160154444Y-84053334D01*
X160131025Y-84076268D01*
X160127803Y-84080162D01*
X160004453Y-84231404D01*
X159986287Y-84258747D01*
X159967760Y-84285804D01*
X159965356Y-84290250D01*
X159873731Y-84462573D01*
X159861237Y-84492885D01*
X159848303Y-84523063D01*
X159846808Y-84527891D01*
X159790399Y-84714728D01*
X159784019Y-84746948D01*
X159777205Y-84779006D01*
X159776678Y-84784021D01*
X159776676Y-84784032D01*
X159776676Y-84784042D01*
X159757632Y-84978266D01*
X159755904Y-84995813D01*
X159755905Y-102031370D01*
X159757461Y-102047172D01*
X159757418Y-102053382D01*
X159757911Y-102058412D01*
X159778312Y-102252509D01*
X159784911Y-102284657D01*
X159791057Y-102316877D01*
X159792518Y-102321715D01*
X159850230Y-102508153D01*
X159862956Y-102538427D01*
X159875235Y-102568820D01*
X159877606Y-102573278D01*
X159877608Y-102573283D01*
X159877611Y-102573287D01*
X159970433Y-102744959D01*
X159988763Y-102772134D01*
X160006746Y-102799616D01*
X160009941Y-102803532D01*
X160134344Y-102953910D01*
X160157650Y-102977053D01*
X160180581Y-103000470D01*
X160184475Y-103003692D01*
X160335717Y-103127042D01*
X160363051Y-103145203D01*
X160390118Y-103163736D01*
X160394559Y-103166136D01*
X160394563Y-103166139D01*
X160394567Y-103166141D01*
X160566886Y-103257764D01*
X160597237Y-103270274D01*
X160627377Y-103283192D01*
X160632205Y-103284687D01*
X160819041Y-103341096D01*
X160851279Y-103347479D01*
X160883318Y-103354290D01*
X160888336Y-103354817D01*
X160888346Y-103354819D01*
X160888355Y-103354819D01*
X161082578Y-103373863D01*
X161082579Y-103373863D01*
X161100125Y-103375591D01*
X166255905Y-103375591D01*
X166255904Y-106497468D01*
X166181187Y-107334655D01*
X165963669Y-108129767D01*
X165608786Y-108873794D01*
X165127758Y-109543215D01*
X164535784Y-110116878D01*
X163851586Y-110576639D01*
X163096778Y-110907977D01*
X162292443Y-111101081D01*
X161604628Y-111151591D01*
X151979904Y-111151591D01*
X151979904Y-110995812D01*
X151978347Y-110980000D01*
X151978390Y-110973799D01*
X151977897Y-110968769D01*
X151957496Y-110774673D01*
X151950896Y-110742518D01*
X151944751Y-110710305D01*
X151943291Y-110705471D01*
X151943290Y-110705465D01*
X151943288Y-110705459D01*
X151885578Y-110519029D01*
X151872852Y-110488755D01*
X151860573Y-110458362D01*
X151858200Y-110453899D01*
X151765375Y-110282223D01*
X151747045Y-110255048D01*
X151729062Y-110227566D01*
X151725867Y-110223650D01*
X151601463Y-110073272D01*
X151578161Y-110050131D01*
X151555227Y-110026712D01*
X151551333Y-110023490D01*
X151400091Y-109900140D01*
X151372748Y-109881974D01*
X151345691Y-109863447D01*
X151341245Y-109861043D01*
X151168922Y-109769418D01*
X151138597Y-109756919D01*
X151108432Y-109743990D01*
X151103604Y-109742495D01*
X150916767Y-109686086D01*
X150884547Y-109679706D01*
X150852489Y-109672892D01*
X150847474Y-109672365D01*
X150847463Y-109672363D01*
X150847453Y-109672363D01*
X150653229Y-109653319D01*
X150635683Y-109651591D01*
X145279716Y-109651591D01*
X147571552Y-107324222D01*
X160695207Y-107324222D01*
X160695207Y-107702960D01*
X160769095Y-108074421D01*
X160914032Y-108424329D01*
X161124448Y-108739239D01*
X161392256Y-109007047D01*
X161707166Y-109217463D01*
X162057074Y-109362400D01*
X162428535Y-109436288D01*
X162807273Y-109436288D01*
X163178734Y-109362400D01*
X163528642Y-109217463D01*
X163843552Y-109007047D01*
X164111360Y-108739239D01*
X164321776Y-108424329D01*
X164466713Y-108074421D01*
X164540601Y-107702960D01*
X164540601Y-107324222D01*
X164466713Y-106952761D01*
X164321776Y-106602853D01*
X164111360Y-106287943D01*
X163843552Y-106020135D01*
X163528642Y-105809719D01*
X163178734Y-105664782D01*
X162807273Y-105590894D01*
X162428535Y-105590894D01*
X162057074Y-105664782D01*
X161707166Y-105809719D01*
X161392256Y-106020135D01*
X161124448Y-106287943D01*
X160914032Y-106602853D01*
X160769095Y-106952761D01*
X160695207Y-107324222D01*
X147571552Y-107324222D01*
X149808395Y-105052700D01*
X149824040Y-105033334D01*
X149835607Y-105011288D01*
X149842651Y-104987409D01*
X149844904Y-104963591D01*
X149844904Y-103517023D01*
X150072285Y-103422839D01*
X150661844Y-103028909D01*
X151163222Y-102527531D01*
X151557152Y-101937972D01*
X151828496Y-101282890D01*
X151966826Y-100587458D01*
X151966826Y-99878402D01*
X151828496Y-99182970D01*
X151557152Y-98527888D01*
X151163222Y-97938329D01*
X150661844Y-97436951D01*
X150072285Y-97043021D01*
X149844904Y-96948837D01*
X149844904Y-93063591D01*
X149842464Y-93038815D01*
X149835237Y-93014990D01*
X149823501Y-92993034D01*
X149807707Y-92973788D01*
X149257707Y-92423788D01*
X149238461Y-92407994D01*
X149216505Y-92396258D01*
X149192680Y-92389031D01*
X149167904Y-92386591D01*
X146605855Y-92386591D01*
X146553993Y-92109153D01*
X146211882Y-91226062D01*
X145713328Y-90420870D01*
X145075310Y-89720997D01*
X144319554Y-89150277D01*
X143471796Y-88728144D01*
X142560907Y-88468973D01*
X141617904Y-88381591D01*
X140674901Y-88468973D01*
X139764012Y-88728144D01*
X138916254Y-89150277D01*
X138160498Y-89720997D01*
X137522480Y-90420870D01*
X137023926Y-91226062D01*
X136681815Y-92109153D01*
X136507796Y-93040070D01*
X136507796Y-93987112D01*
X136681815Y-94918029D01*
X136863337Y-95386591D01*
X134067904Y-95386591D01*
X134043128Y-95389031D01*
X134019303Y-95396258D01*
X133997347Y-95407994D01*
X133978101Y-95423788D01*
X133962307Y-95443034D01*
X133950571Y-95464990D01*
X133943344Y-95488815D01*
X133940904Y-95513591D01*
X133940904Y-98914161D01*
X133827864Y-98867338D01*
X133132432Y-98729008D01*
X132423376Y-98729008D01*
X131727944Y-98867338D01*
X131072862Y-99138682D01*
X130483303Y-99532612D01*
X129981925Y-100033990D01*
X129587995Y-100623549D01*
X129316651Y-101278631D01*
X129178321Y-101974063D01*
X129178321Y-102683119D01*
X129316651Y-103378551D01*
X129587995Y-104033633D01*
X129981925Y-104623192D01*
X130483303Y-105124570D01*
X131072862Y-105518500D01*
X131727944Y-105789844D01*
X132423376Y-105928174D01*
X133132432Y-105928174D01*
X133827864Y-105789844D01*
X133940904Y-105743021D01*
X133940904Y-106360017D01*
X132029275Y-108222630D01*
X132013233Y-108241668D01*
X132001212Y-108263471D01*
X131993677Y-108287199D01*
X131990904Y-108313591D01*
X131990904Y-109809688D01*
X131886536Y-109866120D01*
X131859361Y-109884450D01*
X131831879Y-109902433D01*
X131827963Y-109905628D01*
X131677585Y-110030032D01*
X131654456Y-110053323D01*
X131631025Y-110076268D01*
X131627803Y-110080162D01*
X131504453Y-110231404D01*
X131486287Y-110258747D01*
X131467760Y-110285804D01*
X131465356Y-110290250D01*
X131373731Y-110462573D01*
X131361237Y-110492885D01*
X131348303Y-110523063D01*
X131346808Y-110527891D01*
X131290399Y-110714728D01*
X131284019Y-110746948D01*
X131277205Y-110779006D01*
X131276678Y-110784021D01*
X131276676Y-110784032D01*
X131276676Y-110784042D01*
X131257632Y-110978266D01*
X131255904Y-110995813D01*
X131255904Y-111151591D01*
X121634027Y-111151591D01*
X120796840Y-111076874D01*
X120001728Y-110859356D01*
X119257701Y-110504473D01*
X118588280Y-110023445D01*
X118014617Y-109431471D01*
X117554856Y-108747273D01*
X117223518Y-107992465D01*
X117063087Y-107324222D01*
X118695207Y-107324222D01*
X118695207Y-107702960D01*
X118769095Y-108074421D01*
X118914032Y-108424329D01*
X119124448Y-108739239D01*
X119392256Y-109007047D01*
X119707166Y-109217463D01*
X120057074Y-109362400D01*
X120428535Y-109436288D01*
X120807273Y-109436288D01*
X121178734Y-109362400D01*
X121528642Y-109217463D01*
X121843552Y-109007047D01*
X122111360Y-108739239D01*
X122321776Y-108424329D01*
X122466713Y-108074421D01*
X122540601Y-107702960D01*
X122540601Y-107324222D01*
X122466713Y-106952761D01*
X122321776Y-106602853D01*
X122111360Y-106287943D01*
X121843552Y-106020135D01*
X121528642Y-105809719D01*
X121178734Y-105664782D01*
X120807273Y-105590894D01*
X120428535Y-105590894D01*
X120057074Y-105664782D01*
X119707166Y-105809719D01*
X119392256Y-106020135D01*
X119124448Y-106287943D01*
X118914032Y-106602853D01*
X118769095Y-106952761D01*
X118695207Y-107324222D01*
X117063087Y-107324222D01*
X117030414Y-107188130D01*
X116979904Y-106500315D01*
X116979904Y-103375591D01*
X121135683Y-103375591D01*
X121151495Y-103374034D01*
X121157695Y-103374077D01*
X121162725Y-103373584D01*
X121356822Y-103353183D01*
X121388970Y-103346584D01*
X121421190Y-103340438D01*
X121426026Y-103338978D01*
X121426032Y-103338976D01*
X121612466Y-103281265D01*
X121642740Y-103268539D01*
X121673133Y-103256260D01*
X121677591Y-103253889D01*
X121677596Y-103253887D01*
X121677600Y-103253884D01*
X121849272Y-103161062D01*
X121876447Y-103142732D01*
X121903929Y-103124749D01*
X121907845Y-103121554D01*
X122058223Y-102997151D01*
X122081366Y-102973845D01*
X122104783Y-102950914D01*
X122108005Y-102947020D01*
X122231355Y-102795778D01*
X122249516Y-102768444D01*
X122268049Y-102741377D01*
X122270449Y-102736936D01*
X122270452Y-102736932D01*
X122270454Y-102736928D01*
X122362077Y-102564609D01*
X122374587Y-102534258D01*
X122387505Y-102504118D01*
X122389000Y-102499290D01*
X122445409Y-102312454D01*
X122451792Y-102280216D01*
X122458603Y-102248177D01*
X122459130Y-102243159D01*
X122459132Y-102243149D01*
X122459132Y-102243140D01*
X122478176Y-102048917D01*
X122478176Y-102048916D01*
X122479904Y-102031370D01*
X122479904Y-86439063D01*
X131308321Y-86439063D01*
X131308321Y-87148119D01*
X131446651Y-87843551D01*
X131717995Y-88498633D01*
X132111925Y-89088192D01*
X132613303Y-89589570D01*
X133202862Y-89983500D01*
X133857944Y-90254844D01*
X134553376Y-90393174D01*
X135262432Y-90393174D01*
X135957864Y-90254844D01*
X136612946Y-89983500D01*
X137202505Y-89589570D01*
X137703883Y-89088192D01*
X138097813Y-88498633D01*
X138369157Y-87843551D01*
X138507487Y-87148119D01*
X138507487Y-86439063D01*
X138369157Y-85743631D01*
X138097813Y-85088549D01*
X137703883Y-84498990D01*
X137202505Y-83997612D01*
X136612946Y-83603682D01*
X135957864Y-83332338D01*
X135360883Y-83213591D01*
X138690904Y-83213591D01*
X138690904Y-84963591D01*
X138693344Y-84988367D01*
X138700571Y-85012192D01*
X138712307Y-85034148D01*
X138728101Y-85053394D01*
X138747347Y-85069188D01*
X138769303Y-85080924D01*
X138793128Y-85088151D01*
X138817904Y-85090591D01*
X141467904Y-85090591D01*
X141492680Y-85088151D01*
X141516505Y-85080924D01*
X141538461Y-85069188D01*
X141557707Y-85053394D01*
X141573501Y-85034148D01*
X141585237Y-85012192D01*
X141592464Y-84988367D01*
X141594904Y-84963591D01*
X141594904Y-84309063D01*
X146868321Y-84309063D01*
X146868321Y-85018119D01*
X147006651Y-85713551D01*
X147277995Y-86368633D01*
X147671925Y-86958192D01*
X148173303Y-87459570D01*
X148762862Y-87853500D01*
X149417944Y-88124844D01*
X150113376Y-88263174D01*
X150822432Y-88263174D01*
X151517864Y-88124844D01*
X152172946Y-87853500D01*
X152762505Y-87459570D01*
X153263883Y-86958192D01*
X153657813Y-86368633D01*
X153929157Y-85713551D01*
X154067487Y-85018119D01*
X154067487Y-84309063D01*
X153929157Y-83613631D01*
X153657813Y-82958549D01*
X153263883Y-82368990D01*
X152762505Y-81867612D01*
X152172946Y-81473682D01*
X151517864Y-81202338D01*
X150822432Y-81064008D01*
X150113376Y-81064008D01*
X149417944Y-81202338D01*
X148762862Y-81473682D01*
X148173303Y-81867612D01*
X147671925Y-82368990D01*
X147277995Y-82958549D01*
X147006651Y-83613631D01*
X146868321Y-84309063D01*
X141594904Y-84309063D01*
X141594904Y-83213591D01*
X141592464Y-83188815D01*
X141585237Y-83164990D01*
X141573501Y-83143034D01*
X141557707Y-83123788D01*
X141538461Y-83107994D01*
X141516505Y-83096258D01*
X141492680Y-83089031D01*
X141467904Y-83086591D01*
X138817904Y-83086591D01*
X138793128Y-83089031D01*
X138769303Y-83096258D01*
X138747347Y-83107994D01*
X138728101Y-83123788D01*
X138712307Y-83143034D01*
X138700571Y-83164990D01*
X138693344Y-83188815D01*
X138690904Y-83213591D01*
X135360883Y-83213591D01*
X135262432Y-83194008D01*
X134553376Y-83194008D01*
X133857944Y-83332338D01*
X133202862Y-83603682D01*
X132613303Y-83997612D01*
X132111925Y-84498990D01*
X131717995Y-85088549D01*
X131446651Y-85743631D01*
X131308321Y-86439063D01*
X122479904Y-86439063D01*
X122479904Y-84995812D01*
X122478347Y-84980000D01*
X122478390Y-84973799D01*
X122477897Y-84968769D01*
X122457496Y-84774673D01*
X122450896Y-84742518D01*
X122444751Y-84710305D01*
X122443291Y-84705471D01*
X122443290Y-84705465D01*
X122443288Y-84705459D01*
X122385578Y-84519029D01*
X122372852Y-84488755D01*
X122360573Y-84458362D01*
X122358200Y-84453899D01*
X122265375Y-84282223D01*
X122247045Y-84255048D01*
X122229062Y-84227566D01*
X122225867Y-84223650D01*
X122101463Y-84073272D01*
X122078161Y-84050131D01*
X122055227Y-84026712D01*
X122051333Y-84023490D01*
X121900091Y-83900140D01*
X121872748Y-83881974D01*
X121845691Y-83863447D01*
X121841245Y-83861043D01*
X121668922Y-83769418D01*
X121638597Y-83756919D01*
X121608432Y-83743990D01*
X121603604Y-83742495D01*
X121416767Y-83686086D01*
X121384547Y-83679706D01*
X121352489Y-83672892D01*
X121347474Y-83672365D01*
X121347463Y-83672363D01*
X121347453Y-83672363D01*
X121153229Y-83653319D01*
X121135683Y-83651591D01*
X116979904Y-83651591D01*
X116979904Y-80529715D01*
X117054621Y-79692527D01*
X117155377Y-79324222D01*
X118695207Y-79324222D01*
X118695207Y-79702960D01*
X118769095Y-80074421D01*
X118914032Y-80424329D01*
X119124448Y-80739239D01*
X119392256Y-81007047D01*
X119707166Y-81217463D01*
X120057074Y-81362400D01*
X120428535Y-81436288D01*
X120807273Y-81436288D01*
X121178734Y-81362400D01*
X121528642Y-81217463D01*
X121843552Y-81007047D01*
X122111360Y-80739239D01*
X122321776Y-80424329D01*
X122466713Y-80074421D01*
X122540601Y-79702960D01*
X122540601Y-79324222D01*
X160695207Y-79324222D01*
X160695207Y-79702960D01*
X160769095Y-80074421D01*
X160914032Y-80424329D01*
X161124448Y-80739239D01*
X161392256Y-81007047D01*
X161707166Y-81217463D01*
X162057074Y-81362400D01*
X162428535Y-81436288D01*
X162807273Y-81436288D01*
X163178734Y-81362400D01*
X163528642Y-81217463D01*
X163843552Y-81007047D01*
X164111360Y-80739239D01*
X164321776Y-80424329D01*
X164466713Y-80074421D01*
X164540601Y-79702960D01*
X164540601Y-79324222D01*
X164466713Y-78952761D01*
X164321776Y-78602853D01*
X164111360Y-78287943D01*
X163843552Y-78020135D01*
X163528642Y-77809719D01*
X163178734Y-77664782D01*
X162807273Y-77590894D01*
X162428535Y-77590894D01*
X162057074Y-77664782D01*
X161707166Y-77809719D01*
X161392256Y-78020135D01*
X161124448Y-78287943D01*
X160914032Y-78602853D01*
X160769095Y-78952761D01*
X160695207Y-79324222D01*
X122540601Y-79324222D01*
X122466713Y-78952761D01*
X122321776Y-78602853D01*
X122111360Y-78287943D01*
X121843552Y-78020135D01*
X121528642Y-77809719D01*
X121178734Y-77664782D01*
X120807273Y-77590894D01*
X120428535Y-77590894D01*
X120057074Y-77664782D01*
X119707166Y-77809719D01*
X119392256Y-78020135D01*
X119124448Y-78287943D01*
X118914032Y-78602853D01*
X118769095Y-78952761D01*
X118695207Y-79324222D01*
X117155377Y-79324222D01*
X117272139Y-78897415D01*
X117627022Y-78153388D01*
X118108048Y-77483970D01*
X118700024Y-76910304D01*
X119384224Y-76450542D01*
X120139030Y-76119205D01*
X120943367Y-75926101D01*
X121631180Y-75875591D01*
X131255905Y-75875591D01*
X131255905Y-76031370D01*
G04 #@! TA.AperFunction,Conductor*
D13*
G36*
X131255905Y-76031370D02*
G01*
X131257461Y-76047172D01*
X131257418Y-76053382D01*
X131257911Y-76058412D01*
X131278312Y-76252509D01*
X131284911Y-76284657D01*
X131291057Y-76316877D01*
X131292518Y-76321715D01*
X131350230Y-76508153D01*
X131362956Y-76538427D01*
X131375235Y-76568820D01*
X131377606Y-76573278D01*
X131377608Y-76573283D01*
X131377611Y-76573287D01*
X131470433Y-76744959D01*
X131488744Y-76772106D01*
X131506746Y-76799616D01*
X131509941Y-76803532D01*
X131634344Y-76953910D01*
X131657650Y-76977053D01*
X131680581Y-77000470D01*
X131684475Y-77003692D01*
X131835717Y-77127042D01*
X131863051Y-77145203D01*
X131890118Y-77163736D01*
X131894559Y-77166136D01*
X131894563Y-77166139D01*
X131894567Y-77166141D01*
X132066886Y-77257764D01*
X132097237Y-77270274D01*
X132127377Y-77283192D01*
X132132205Y-77284687D01*
X132319041Y-77341096D01*
X132351279Y-77347479D01*
X132383318Y-77354290D01*
X132388336Y-77354817D01*
X132388346Y-77354819D01*
X132388355Y-77354819D01*
X132582578Y-77373863D01*
X132582579Y-77373863D01*
X132600125Y-77375591D01*
X150635683Y-77375591D01*
X150651495Y-77374034D01*
X150657695Y-77374077D01*
X150662725Y-77373584D01*
X150856822Y-77353183D01*
X150888970Y-77346584D01*
X150921190Y-77340438D01*
X150926026Y-77338978D01*
X150926032Y-77338976D01*
X151112466Y-77281265D01*
X151142740Y-77268539D01*
X151173133Y-77256260D01*
X151177591Y-77253889D01*
X151177596Y-77253887D01*
X151177600Y-77253884D01*
X151349272Y-77161062D01*
X151376447Y-77142732D01*
X151403929Y-77124749D01*
X151407845Y-77121554D01*
X151558223Y-76997151D01*
X151581366Y-76973845D01*
X151604783Y-76950914D01*
X151608005Y-76947020D01*
X151731355Y-76795778D01*
X151749516Y-76768444D01*
X151768049Y-76741377D01*
X151770449Y-76736936D01*
X151770452Y-76736932D01*
X151770454Y-76736928D01*
X151862077Y-76564609D01*
X151874587Y-76534258D01*
X151887505Y-76504118D01*
X151889000Y-76499290D01*
X151945409Y-76312454D01*
X151951792Y-76280216D01*
X151958603Y-76248177D01*
X151959130Y-76243159D01*
X151959132Y-76243149D01*
X151959132Y-76243140D01*
X151978176Y-76048917D01*
X151978176Y-76048916D01*
X151979904Y-76031370D01*
X151979904Y-75875591D01*
X161601780Y-75875591D01*
X162438968Y-75950308D01*
X163234080Y-76167826D01*
X163978107Y-76522709D01*
X164647525Y-77003735D01*
X165221191Y-77595711D01*
X165680953Y-78279911D01*
X166012290Y-79034717D01*
X166205394Y-79839054D01*
X166255905Y-80526880D01*
X166255904Y-83651591D01*
X161100125Y-83651591D01*
X161084313Y-83653148D01*
X161078112Y-83653105D01*
X161073082Y-83653598D01*
X160878986Y-83673999D01*
X160846831Y-83680599D01*
X160814618Y-83686744D01*
X160809784Y-83688204D01*
X160809778Y-83688205D01*
X160809772Y-83688207D01*
X160623342Y-83745917D01*
X160593068Y-83758643D01*
X160562675Y-83770922D01*
X160558212Y-83773295D01*
X160386536Y-83866120D01*
X160359361Y-83884450D01*
X160331879Y-83902433D01*
X160327963Y-83905628D01*
X160177585Y-84030032D01*
X160154444Y-84053334D01*
X160131025Y-84076268D01*
X160127803Y-84080162D01*
X160004453Y-84231404D01*
X159986287Y-84258747D01*
X159967760Y-84285804D01*
X159965356Y-84290250D01*
X159873731Y-84462573D01*
X159861237Y-84492885D01*
X159848303Y-84523063D01*
X159846808Y-84527891D01*
X159790399Y-84714728D01*
X159784019Y-84746948D01*
X159777205Y-84779006D01*
X159776678Y-84784021D01*
X159776676Y-84784032D01*
X159776676Y-84784042D01*
X159757632Y-84978266D01*
X159755904Y-84995813D01*
X159755905Y-102031370D01*
X159757461Y-102047172D01*
X159757418Y-102053382D01*
X159757911Y-102058412D01*
X159778312Y-102252509D01*
X159784911Y-102284657D01*
X159791057Y-102316877D01*
X159792518Y-102321715D01*
X159850230Y-102508153D01*
X159862956Y-102538427D01*
X159875235Y-102568820D01*
X159877606Y-102573278D01*
X159877608Y-102573283D01*
X159877611Y-102573287D01*
X159970433Y-102744959D01*
X159988763Y-102772134D01*
X160006746Y-102799616D01*
X160009941Y-102803532D01*
X160134344Y-102953910D01*
X160157650Y-102977053D01*
X160180581Y-103000470D01*
X160184475Y-103003692D01*
X160335717Y-103127042D01*
X160363051Y-103145203D01*
X160390118Y-103163736D01*
X160394559Y-103166136D01*
X160394563Y-103166139D01*
X160394567Y-103166141D01*
X160566886Y-103257764D01*
X160597237Y-103270274D01*
X160627377Y-103283192D01*
X160632205Y-103284687D01*
X160819041Y-103341096D01*
X160851279Y-103347479D01*
X160883318Y-103354290D01*
X160888336Y-103354817D01*
X160888346Y-103354819D01*
X160888355Y-103354819D01*
X161082578Y-103373863D01*
X161082579Y-103373863D01*
X161100125Y-103375591D01*
X166255905Y-103375591D01*
X166255904Y-106497468D01*
X166181187Y-107334655D01*
X165963669Y-108129767D01*
X165608786Y-108873794D01*
X165127758Y-109543215D01*
X164535784Y-110116878D01*
X163851586Y-110576639D01*
X163096778Y-110907977D01*
X162292443Y-111101081D01*
X161604628Y-111151591D01*
X151979904Y-111151591D01*
X151979904Y-110995812D01*
X151978347Y-110980000D01*
X151978390Y-110973799D01*
X151977897Y-110968769D01*
X151957496Y-110774673D01*
X151950896Y-110742518D01*
X151944751Y-110710305D01*
X151943291Y-110705471D01*
X151943290Y-110705465D01*
X151943288Y-110705459D01*
X151885578Y-110519029D01*
X151872852Y-110488755D01*
X151860573Y-110458362D01*
X151858200Y-110453899D01*
X151765375Y-110282223D01*
X151747045Y-110255048D01*
X151729062Y-110227566D01*
X151725867Y-110223650D01*
X151601463Y-110073272D01*
X151578161Y-110050131D01*
X151555227Y-110026712D01*
X151551333Y-110023490D01*
X151400091Y-109900140D01*
X151372748Y-109881974D01*
X151345691Y-109863447D01*
X151341245Y-109861043D01*
X151168922Y-109769418D01*
X151138597Y-109756919D01*
X151108432Y-109743990D01*
X151103604Y-109742495D01*
X150916767Y-109686086D01*
X150884547Y-109679706D01*
X150852489Y-109672892D01*
X150847474Y-109672365D01*
X150847463Y-109672363D01*
X150847453Y-109672363D01*
X150653229Y-109653319D01*
X150635683Y-109651591D01*
X145279716Y-109651591D01*
X147571552Y-107324222D01*
X160695207Y-107324222D01*
X160695207Y-107702960D01*
X160769095Y-108074421D01*
X160914032Y-108424329D01*
X161124448Y-108739239D01*
X161392256Y-109007047D01*
X161707166Y-109217463D01*
X162057074Y-109362400D01*
X162428535Y-109436288D01*
X162807273Y-109436288D01*
X163178734Y-109362400D01*
X163528642Y-109217463D01*
X163843552Y-109007047D01*
X164111360Y-108739239D01*
X164321776Y-108424329D01*
X164466713Y-108074421D01*
X164540601Y-107702960D01*
X164540601Y-107324222D01*
X164466713Y-106952761D01*
X164321776Y-106602853D01*
X164111360Y-106287943D01*
X163843552Y-106020135D01*
X163528642Y-105809719D01*
X163178734Y-105664782D01*
X162807273Y-105590894D01*
X162428535Y-105590894D01*
X162057074Y-105664782D01*
X161707166Y-105809719D01*
X161392256Y-106020135D01*
X161124448Y-106287943D01*
X160914032Y-106602853D01*
X160769095Y-106952761D01*
X160695207Y-107324222D01*
X147571552Y-107324222D01*
X149808395Y-105052700D01*
X149824040Y-105033334D01*
X149835607Y-105011288D01*
X149842651Y-104987409D01*
X149844904Y-104963591D01*
X149844904Y-103517023D01*
X150072285Y-103422839D01*
X150661844Y-103028909D01*
X151163222Y-102527531D01*
X151557152Y-101937972D01*
X151828496Y-101282890D01*
X151966826Y-100587458D01*
X151966826Y-99878402D01*
X151828496Y-99182970D01*
X151557152Y-98527888D01*
X151163222Y-97938329D01*
X150661844Y-97436951D01*
X150072285Y-97043021D01*
X149844904Y-96948837D01*
X149844904Y-93063591D01*
X149842464Y-93038815D01*
X149835237Y-93014990D01*
X149823501Y-92993034D01*
X149807707Y-92973788D01*
X149257707Y-92423788D01*
X149238461Y-92407994D01*
X149216505Y-92396258D01*
X149192680Y-92389031D01*
X149167904Y-92386591D01*
X146605855Y-92386591D01*
X146553993Y-92109153D01*
X146211882Y-91226062D01*
X145713328Y-90420870D01*
X145075310Y-89720997D01*
X144319554Y-89150277D01*
X143471796Y-88728144D01*
X142560907Y-88468973D01*
X141617904Y-88381591D01*
X140674901Y-88468973D01*
X139764012Y-88728144D01*
X138916254Y-89150277D01*
X138160498Y-89720997D01*
X137522480Y-90420870D01*
X137023926Y-91226062D01*
X136681815Y-92109153D01*
X136507796Y-93040070D01*
X136507796Y-93987112D01*
X136681815Y-94918029D01*
X136863337Y-95386591D01*
X134067904Y-95386591D01*
X134043128Y-95389031D01*
X134019303Y-95396258D01*
X133997347Y-95407994D01*
X133978101Y-95423788D01*
X133962307Y-95443034D01*
X133950571Y-95464990D01*
X133943344Y-95488815D01*
X133940904Y-95513591D01*
X133940904Y-98914161D01*
X133827864Y-98867338D01*
X133132432Y-98729008D01*
X132423376Y-98729008D01*
X131727944Y-98867338D01*
X131072862Y-99138682D01*
X130483303Y-99532612D01*
X129981925Y-100033990D01*
X129587995Y-100623549D01*
X129316651Y-101278631D01*
X129178321Y-101974063D01*
X129178321Y-102683119D01*
X129316651Y-103378551D01*
X129587995Y-104033633D01*
X129981925Y-104623192D01*
X130483303Y-105124570D01*
X131072862Y-105518500D01*
X131727944Y-105789844D01*
X132423376Y-105928174D01*
X133132432Y-105928174D01*
X133827864Y-105789844D01*
X133940904Y-105743021D01*
X133940904Y-106360017D01*
X132029275Y-108222630D01*
X132013233Y-108241668D01*
X132001212Y-108263471D01*
X131993677Y-108287199D01*
X131990904Y-108313591D01*
X131990904Y-109809688D01*
X131886536Y-109866120D01*
X131859361Y-109884450D01*
X131831879Y-109902433D01*
X131827963Y-109905628D01*
X131677585Y-110030032D01*
X131654456Y-110053323D01*
X131631025Y-110076268D01*
X131627803Y-110080162D01*
X131504453Y-110231404D01*
X131486287Y-110258747D01*
X131467760Y-110285804D01*
X131465356Y-110290250D01*
X131373731Y-110462573D01*
X131361237Y-110492885D01*
X131348303Y-110523063D01*
X131346808Y-110527891D01*
X131290399Y-110714728D01*
X131284019Y-110746948D01*
X131277205Y-110779006D01*
X131276678Y-110784021D01*
X131276676Y-110784032D01*
X131276676Y-110784042D01*
X131257632Y-110978266D01*
X131255904Y-110995813D01*
X131255904Y-111151591D01*
X121634027Y-111151591D01*
X120796840Y-111076874D01*
X120001728Y-110859356D01*
X119257701Y-110504473D01*
X118588280Y-110023445D01*
X118014617Y-109431471D01*
X117554856Y-108747273D01*
X117223518Y-107992465D01*
X117063087Y-107324222D01*
X118695207Y-107324222D01*
X118695207Y-107702960D01*
X118769095Y-108074421D01*
X118914032Y-108424329D01*
X119124448Y-108739239D01*
X119392256Y-109007047D01*
X119707166Y-109217463D01*
X120057074Y-109362400D01*
X120428535Y-109436288D01*
X120807273Y-109436288D01*
X121178734Y-109362400D01*
X121528642Y-109217463D01*
X121843552Y-109007047D01*
X122111360Y-108739239D01*
X122321776Y-108424329D01*
X122466713Y-108074421D01*
X122540601Y-107702960D01*
X122540601Y-107324222D01*
X122466713Y-106952761D01*
X122321776Y-106602853D01*
X122111360Y-106287943D01*
X121843552Y-106020135D01*
X121528642Y-105809719D01*
X121178734Y-105664782D01*
X120807273Y-105590894D01*
X120428535Y-105590894D01*
X120057074Y-105664782D01*
X119707166Y-105809719D01*
X119392256Y-106020135D01*
X119124448Y-106287943D01*
X118914032Y-106602853D01*
X118769095Y-106952761D01*
X118695207Y-107324222D01*
X117063087Y-107324222D01*
X117030414Y-107188130D01*
X116979904Y-106500315D01*
X116979904Y-103375591D01*
X121135683Y-103375591D01*
X121151495Y-103374034D01*
X121157695Y-103374077D01*
X121162725Y-103373584D01*
X121356822Y-103353183D01*
X121388970Y-103346584D01*
X121421190Y-103340438D01*
X121426026Y-103338978D01*
X121426032Y-103338976D01*
X121612466Y-103281265D01*
X121642740Y-103268539D01*
X121673133Y-103256260D01*
X121677591Y-103253889D01*
X121677596Y-103253887D01*
X121677600Y-103253884D01*
X121849272Y-103161062D01*
X121876447Y-103142732D01*
X121903929Y-103124749D01*
X121907845Y-103121554D01*
X122058223Y-102997151D01*
X122081366Y-102973845D01*
X122104783Y-102950914D01*
X122108005Y-102947020D01*
X122231355Y-102795778D01*
X122249516Y-102768444D01*
X122268049Y-102741377D01*
X122270449Y-102736936D01*
X122270452Y-102736932D01*
X122270454Y-102736928D01*
X122362077Y-102564609D01*
X122374587Y-102534258D01*
X122387505Y-102504118D01*
X122389000Y-102499290D01*
X122445409Y-102312454D01*
X122451792Y-102280216D01*
X122458603Y-102248177D01*
X122459130Y-102243159D01*
X122459132Y-102243149D01*
X122459132Y-102243140D01*
X122478176Y-102048917D01*
X122478176Y-102048916D01*
X122479904Y-102031370D01*
X122479904Y-86439063D01*
X131308321Y-86439063D01*
X131308321Y-87148119D01*
X131446651Y-87843551D01*
X131717995Y-88498633D01*
X132111925Y-89088192D01*
X132613303Y-89589570D01*
X133202862Y-89983500D01*
X133857944Y-90254844D01*
X134553376Y-90393174D01*
X135262432Y-90393174D01*
X135957864Y-90254844D01*
X136612946Y-89983500D01*
X137202505Y-89589570D01*
X137703883Y-89088192D01*
X138097813Y-88498633D01*
X138369157Y-87843551D01*
X138507487Y-87148119D01*
X138507487Y-86439063D01*
X138369157Y-85743631D01*
X138097813Y-85088549D01*
X137703883Y-84498990D01*
X137202505Y-83997612D01*
X136612946Y-83603682D01*
X135957864Y-83332338D01*
X135360883Y-83213591D01*
X138690904Y-83213591D01*
X138690904Y-84963591D01*
X138693344Y-84988367D01*
X138700571Y-85012192D01*
X138712307Y-85034148D01*
X138728101Y-85053394D01*
X138747347Y-85069188D01*
X138769303Y-85080924D01*
X138793128Y-85088151D01*
X138817904Y-85090591D01*
X141467904Y-85090591D01*
X141492680Y-85088151D01*
X141516505Y-85080924D01*
X141538461Y-85069188D01*
X141557707Y-85053394D01*
X141573501Y-85034148D01*
X141585237Y-85012192D01*
X141592464Y-84988367D01*
X141594904Y-84963591D01*
X141594904Y-84309063D01*
X146868321Y-84309063D01*
X146868321Y-85018119D01*
X147006651Y-85713551D01*
X147277995Y-86368633D01*
X147671925Y-86958192D01*
X148173303Y-87459570D01*
X148762862Y-87853500D01*
X149417944Y-88124844D01*
X150113376Y-88263174D01*
X150822432Y-88263174D01*
X151517864Y-88124844D01*
X152172946Y-87853500D01*
X152762505Y-87459570D01*
X153263883Y-86958192D01*
X153657813Y-86368633D01*
X153929157Y-85713551D01*
X154067487Y-85018119D01*
X154067487Y-84309063D01*
X153929157Y-83613631D01*
X153657813Y-82958549D01*
X153263883Y-82368990D01*
X152762505Y-81867612D01*
X152172946Y-81473682D01*
X151517864Y-81202338D01*
X150822432Y-81064008D01*
X150113376Y-81064008D01*
X149417944Y-81202338D01*
X148762862Y-81473682D01*
X148173303Y-81867612D01*
X147671925Y-82368990D01*
X147277995Y-82958549D01*
X147006651Y-83613631D01*
X146868321Y-84309063D01*
X141594904Y-84309063D01*
X141594904Y-83213591D01*
X141592464Y-83188815D01*
X141585237Y-83164990D01*
X141573501Y-83143034D01*
X141557707Y-83123788D01*
X141538461Y-83107994D01*
X141516505Y-83096258D01*
X141492680Y-83089031D01*
X141467904Y-83086591D01*
X138817904Y-83086591D01*
X138793128Y-83089031D01*
X138769303Y-83096258D01*
X138747347Y-83107994D01*
X138728101Y-83123788D01*
X138712307Y-83143034D01*
X138700571Y-83164990D01*
X138693344Y-83188815D01*
X138690904Y-83213591D01*
X135360883Y-83213591D01*
X135262432Y-83194008D01*
X134553376Y-83194008D01*
X133857944Y-83332338D01*
X133202862Y-83603682D01*
X132613303Y-83997612D01*
X132111925Y-84498990D01*
X131717995Y-85088549D01*
X131446651Y-85743631D01*
X131308321Y-86439063D01*
X122479904Y-86439063D01*
X122479904Y-84995812D01*
X122478347Y-84980000D01*
X122478390Y-84973799D01*
X122477897Y-84968769D01*
X122457496Y-84774673D01*
X122450896Y-84742518D01*
X122444751Y-84710305D01*
X122443291Y-84705471D01*
X122443290Y-84705465D01*
X122443288Y-84705459D01*
X122385578Y-84519029D01*
X122372852Y-84488755D01*
X122360573Y-84458362D01*
X122358200Y-84453899D01*
X122265375Y-84282223D01*
X122247045Y-84255048D01*
X122229062Y-84227566D01*
X122225867Y-84223650D01*
X122101463Y-84073272D01*
X122078161Y-84050131D01*
X122055227Y-84026712D01*
X122051333Y-84023490D01*
X121900091Y-83900140D01*
X121872748Y-83881974D01*
X121845691Y-83863447D01*
X121841245Y-83861043D01*
X121668922Y-83769418D01*
X121638597Y-83756919D01*
X121608432Y-83743990D01*
X121603604Y-83742495D01*
X121416767Y-83686086D01*
X121384547Y-83679706D01*
X121352489Y-83672892D01*
X121347474Y-83672365D01*
X121347463Y-83672363D01*
X121347453Y-83672363D01*
X121153229Y-83653319D01*
X121135683Y-83651591D01*
X116979904Y-83651591D01*
X116979904Y-80529715D01*
X117054621Y-79692527D01*
X117155377Y-79324222D01*
X118695207Y-79324222D01*
X118695207Y-79702960D01*
X118769095Y-80074421D01*
X118914032Y-80424329D01*
X119124448Y-80739239D01*
X119392256Y-81007047D01*
X119707166Y-81217463D01*
X120057074Y-81362400D01*
X120428535Y-81436288D01*
X120807273Y-81436288D01*
X121178734Y-81362400D01*
X121528642Y-81217463D01*
X121843552Y-81007047D01*
X122111360Y-80739239D01*
X122321776Y-80424329D01*
X122466713Y-80074421D01*
X122540601Y-79702960D01*
X122540601Y-79324222D01*
X160695207Y-79324222D01*
X160695207Y-79702960D01*
X160769095Y-80074421D01*
X160914032Y-80424329D01*
X161124448Y-80739239D01*
X161392256Y-81007047D01*
X161707166Y-81217463D01*
X162057074Y-81362400D01*
X162428535Y-81436288D01*
X162807273Y-81436288D01*
X163178734Y-81362400D01*
X163528642Y-81217463D01*
X163843552Y-81007047D01*
X164111360Y-80739239D01*
X164321776Y-80424329D01*
X164466713Y-80074421D01*
X164540601Y-79702960D01*
X164540601Y-79324222D01*
X164466713Y-78952761D01*
X164321776Y-78602853D01*
X164111360Y-78287943D01*
X163843552Y-78020135D01*
X163528642Y-77809719D01*
X163178734Y-77664782D01*
X162807273Y-77590894D01*
X162428535Y-77590894D01*
X162057074Y-77664782D01*
X161707166Y-77809719D01*
X161392256Y-78020135D01*
X161124448Y-78287943D01*
X160914032Y-78602853D01*
X160769095Y-78952761D01*
X160695207Y-79324222D01*
X122540601Y-79324222D01*
X122466713Y-78952761D01*
X122321776Y-78602853D01*
X122111360Y-78287943D01*
X121843552Y-78020135D01*
X121528642Y-77809719D01*
X121178734Y-77664782D01*
X120807273Y-77590894D01*
X120428535Y-77590894D01*
X120057074Y-77664782D01*
X119707166Y-77809719D01*
X119392256Y-78020135D01*
X119124448Y-78287943D01*
X118914032Y-78602853D01*
X118769095Y-78952761D01*
X118695207Y-79324222D01*
X117155377Y-79324222D01*
X117272139Y-78897415D01*
X117627022Y-78153388D01*
X118108048Y-77483970D01*
X118700024Y-76910304D01*
X119384224Y-76450542D01*
X120139030Y-76119205D01*
X120943367Y-75926101D01*
X121631180Y-75875591D01*
X131255905Y-75875591D01*
X131255905Y-76031370D01*
G37*
G04 #@! TD.AperFunction*
M02*
