G04 #@! TF.GenerationSoftware,KiCad,Pcbnew,(5.1.9)-1*
G04 #@! TF.CreationDate,2021-08-06T09:53:28+02:00*
G04 #@! TF.ProjectId,Driver,44726976-6572-42e6-9b69-6361645f7063,rev?*
G04 #@! TF.SameCoordinates,Original*
G04 #@! TF.FileFunction,Copper,L2,Bot*
G04 #@! TF.FilePolarity,Positive*
%FSLAX46Y46*%
G04 Gerber Fmt 4.6, Leading zero omitted, Abs format (unit mm)*
G04 Created by KiCad (PCBNEW (5.1.9)-1) date 2021-08-06 09:53:28*
%MOMM*%
%LPD*%
G01*
G04 APERTURE LIST*
G04 #@! TA.AperFunction,ComponentPad*
%ADD10C,0.600000*%
G04 #@! TD*
G04 #@! TA.AperFunction,ViaPad*
%ADD11C,0.600000*%
G04 #@! TD*
G04 #@! TA.AperFunction,Conductor*
%ADD12C,0.254000*%
G04 #@! TD*
G04 #@! TA.AperFunction,Conductor*
%ADD13C,0.100000*%
G04 #@! TD*
G04 APERTURE END LIST*
D10*
X162617904Y-82513591D03*
D11*
X131617904Y-93513591D03*
X129117904Y-93513591D03*
X126617904Y-93513591D03*
X124117904Y-93513591D03*
X124117904Y-96013591D03*
X126617904Y-96013591D03*
X129117904Y-96013591D03*
X131617904Y-96013591D03*
X131617904Y-98513591D03*
X129117904Y-98513591D03*
X124117904Y-98513591D03*
X126617904Y-98513591D03*
X124117904Y-101013591D03*
X126617904Y-101013591D03*
X129117904Y-101013591D03*
X124117904Y-103513591D03*
X126617904Y-103513591D03*
X129117904Y-103513591D03*
X134117904Y-93513591D03*
X127867904Y-97263591D03*
X130367904Y-97263591D03*
X125367904Y-97263591D03*
X125367904Y-99763591D03*
X127867904Y-99763591D03*
D12*
X131265905Y-76030883D02*
X131267419Y-76046260D01*
X131267376Y-76052475D01*
X131267856Y-76057367D01*
X131288257Y-76251464D01*
X131294676Y-76282736D01*
X131300650Y-76314053D01*
X131302071Y-76318758D01*
X131359783Y-76505196D01*
X131372130Y-76534567D01*
X131384097Y-76564187D01*
X131386404Y-76568526D01*
X131479229Y-76740203D01*
X131497062Y-76766641D01*
X131514539Y-76793349D01*
X131517646Y-76797158D01*
X131642050Y-76947536D01*
X131664663Y-76969991D01*
X131687008Y-76992810D01*
X131690796Y-76995942D01*
X131842038Y-77119292D01*
X131868580Y-77136927D01*
X131894935Y-77154972D01*
X131899258Y-77157310D01*
X132071581Y-77248935D01*
X132101071Y-77261090D01*
X132130400Y-77273660D01*
X132135095Y-77275114D01*
X132321931Y-77331523D01*
X132353208Y-77337716D01*
X132384432Y-77344353D01*
X132389320Y-77344866D01*
X132583554Y-77363911D01*
X132600612Y-77365591D01*
X150635196Y-77365591D01*
X150650582Y-77364076D01*
X150656788Y-77364119D01*
X150661680Y-77363639D01*
X150855777Y-77343238D01*
X150887049Y-77336819D01*
X150918366Y-77330845D01*
X150923069Y-77329425D01*
X150923075Y-77329423D01*
X151109509Y-77271712D01*
X151138880Y-77259365D01*
X151168500Y-77247398D01*
X151172839Y-77245091D01*
X151344516Y-77152266D01*
X151370954Y-77134433D01*
X151397662Y-77116956D01*
X151401471Y-77113849D01*
X151551849Y-76989445D01*
X151574304Y-76966832D01*
X151597123Y-76944487D01*
X151600255Y-76940699D01*
X151723605Y-76789457D01*
X151741240Y-76762915D01*
X151759285Y-76736560D01*
X151761623Y-76732237D01*
X151853248Y-76559914D01*
X151865403Y-76530424D01*
X151877973Y-76501095D01*
X151879427Y-76496400D01*
X151935836Y-76309564D01*
X151942029Y-76278287D01*
X151948666Y-76247063D01*
X151949179Y-76242175D01*
X151968224Y-76047941D01*
X151969904Y-76030883D01*
X151969904Y-75865591D01*
X161602232Y-75865591D01*
X162440746Y-75940426D01*
X163237579Y-76158415D01*
X163983216Y-76514067D01*
X164654091Y-76996139D01*
X165228991Y-77589389D01*
X165689750Y-78275072D01*
X166021806Y-79031515D01*
X166215308Y-79837507D01*
X166265905Y-80526516D01*
X166265904Y-83661591D01*
X161100612Y-83661591D01*
X161085226Y-83663106D01*
X161079019Y-83663063D01*
X161074128Y-83663543D01*
X160880031Y-83683944D01*
X160848759Y-83690363D01*
X160817442Y-83696337D01*
X160812739Y-83697757D01*
X160812733Y-83697759D01*
X160626299Y-83755470D01*
X160596928Y-83767817D01*
X160567308Y-83779784D01*
X160562969Y-83782092D01*
X160391292Y-83874916D01*
X160364854Y-83892749D01*
X160338146Y-83910226D01*
X160334337Y-83913333D01*
X160183959Y-84037737D01*
X160161504Y-84060350D01*
X160138685Y-84082695D01*
X160135553Y-84086483D01*
X160012203Y-84237725D01*
X159994580Y-84264249D01*
X159976523Y-84290621D01*
X159974185Y-84294945D01*
X159882560Y-84467267D01*
X159870405Y-84496757D01*
X159857835Y-84526086D01*
X159856382Y-84530782D01*
X159799972Y-84717618D01*
X159793776Y-84748910D01*
X159787142Y-84780120D01*
X159786629Y-84785008D01*
X159767584Y-84979241D01*
X159765904Y-84996300D01*
X159765905Y-102030883D01*
X159767419Y-102046260D01*
X159767376Y-102052475D01*
X159767856Y-102057367D01*
X159788257Y-102251464D01*
X159794676Y-102282736D01*
X159800650Y-102314053D01*
X159802071Y-102318758D01*
X159859783Y-102505196D01*
X159872130Y-102534567D01*
X159884097Y-102564187D01*
X159886404Y-102568526D01*
X159979229Y-102740203D01*
X159997062Y-102766641D01*
X160014539Y-102793349D01*
X160017646Y-102797158D01*
X160142050Y-102947536D01*
X160164663Y-102969991D01*
X160187008Y-102992810D01*
X160190796Y-102995942D01*
X160342038Y-103119292D01*
X160368580Y-103136927D01*
X160394935Y-103154972D01*
X160399258Y-103157310D01*
X160571581Y-103248935D01*
X160601071Y-103261090D01*
X160630400Y-103273660D01*
X160635095Y-103275114D01*
X160821931Y-103331523D01*
X160853208Y-103337716D01*
X160884432Y-103344353D01*
X160889320Y-103344866D01*
X161083554Y-103363911D01*
X161100612Y-103365591D01*
X166265905Y-103365591D01*
X166265904Y-106497919D01*
X166191069Y-107336433D01*
X165973080Y-108133264D01*
X165617427Y-108878906D01*
X165135356Y-109549778D01*
X164542106Y-110124678D01*
X163856423Y-110585437D01*
X163099980Y-110917493D01*
X162293988Y-111110995D01*
X161604993Y-111161591D01*
X151969904Y-111161591D01*
X151969904Y-110996299D01*
X151968389Y-110980913D01*
X151968432Y-110974706D01*
X151967952Y-110969815D01*
X151947551Y-110775718D01*
X151941132Y-110744446D01*
X151935158Y-110713129D01*
X151933737Y-110708424D01*
X151876025Y-110521986D01*
X151863678Y-110492615D01*
X151851711Y-110462995D01*
X151849403Y-110458656D01*
X151756579Y-110286979D01*
X151738746Y-110260541D01*
X151721269Y-110233833D01*
X151718162Y-110230024D01*
X151593758Y-110079646D01*
X151571145Y-110057191D01*
X151548800Y-110034372D01*
X151545012Y-110031240D01*
X151393770Y-109907890D01*
X151367246Y-109890267D01*
X151340874Y-109872210D01*
X151336550Y-109869872D01*
X151164228Y-109778247D01*
X151134738Y-109766092D01*
X151105409Y-109753522D01*
X151100713Y-109752069D01*
X150913877Y-109695659D01*
X150882585Y-109689463D01*
X150851375Y-109682829D01*
X150846487Y-109682316D01*
X150652254Y-109663271D01*
X150635196Y-109661591D01*
X132600612Y-109661591D01*
X132585226Y-109663106D01*
X132579019Y-109663063D01*
X132574128Y-109663543D01*
X132380031Y-109683944D01*
X132348759Y-109690363D01*
X132317442Y-109696337D01*
X132312739Y-109697757D01*
X132312733Y-109697759D01*
X132126299Y-109755470D01*
X132096928Y-109767817D01*
X132067308Y-109779784D01*
X132062969Y-109782092D01*
X131891292Y-109874916D01*
X131864854Y-109892749D01*
X131838146Y-109910226D01*
X131834337Y-109913333D01*
X131683959Y-110037737D01*
X131661504Y-110060350D01*
X131638685Y-110082695D01*
X131635553Y-110086483D01*
X131512203Y-110237725D01*
X131494580Y-110264249D01*
X131476523Y-110290621D01*
X131474185Y-110294945D01*
X131382560Y-110467267D01*
X131370405Y-110496757D01*
X131357835Y-110526086D01*
X131356382Y-110530782D01*
X131299972Y-110717618D01*
X131293776Y-110748910D01*
X131287142Y-110780120D01*
X131286629Y-110785008D01*
X131267633Y-110978746D01*
X131265904Y-110996300D01*
X131265904Y-111161591D01*
X121633576Y-111161591D01*
X120795062Y-111086756D01*
X119998231Y-110868767D01*
X119252589Y-110513114D01*
X118581717Y-110031043D01*
X118006817Y-109437793D01*
X117546058Y-108752110D01*
X117214002Y-107995667D01*
X117053038Y-107325202D01*
X118705159Y-107325202D01*
X118705159Y-107701980D01*
X118778665Y-108071518D01*
X118922851Y-108419616D01*
X119132178Y-108732895D01*
X119398600Y-108999317D01*
X119711879Y-109208644D01*
X120059977Y-109352830D01*
X120429515Y-109426336D01*
X120806293Y-109426336D01*
X121175831Y-109352830D01*
X121523929Y-109208644D01*
X121837208Y-108999317D01*
X122103630Y-108732895D01*
X122312957Y-108419616D01*
X122457143Y-108071518D01*
X122530649Y-107701980D01*
X122530649Y-107325202D01*
X160705159Y-107325202D01*
X160705159Y-107701980D01*
X160778665Y-108071518D01*
X160922851Y-108419616D01*
X161132178Y-108732895D01*
X161398600Y-108999317D01*
X161711879Y-109208644D01*
X162059977Y-109352830D01*
X162429515Y-109426336D01*
X162806293Y-109426336D01*
X163175831Y-109352830D01*
X163523929Y-109208644D01*
X163837208Y-108999317D01*
X164103630Y-108732895D01*
X164312957Y-108419616D01*
X164457143Y-108071518D01*
X164530649Y-107701980D01*
X164530649Y-107325202D01*
X164457143Y-106955664D01*
X164312957Y-106607566D01*
X164103630Y-106294287D01*
X163837208Y-106027865D01*
X163523929Y-105818538D01*
X163175831Y-105674352D01*
X162806293Y-105600846D01*
X162429515Y-105600846D01*
X162059977Y-105674352D01*
X161711879Y-105818538D01*
X161398600Y-106027865D01*
X161132178Y-106294287D01*
X160922851Y-106607566D01*
X160778665Y-106955664D01*
X160705159Y-107325202D01*
X122530649Y-107325202D01*
X122457143Y-106955664D01*
X122312957Y-106607566D01*
X122103630Y-106294287D01*
X121837208Y-106027865D01*
X121523929Y-105818538D01*
X121175831Y-105674352D01*
X120806293Y-105600846D01*
X120429515Y-105600846D01*
X120059977Y-105674352D01*
X119711879Y-105818538D01*
X119398600Y-106027865D01*
X119132178Y-106294287D01*
X118922851Y-106607566D01*
X118778665Y-106955664D01*
X118705159Y-107325202D01*
X117053038Y-107325202D01*
X117020500Y-107189675D01*
X116969904Y-106500680D01*
X116969904Y-103365591D01*
X121135196Y-103365591D01*
X121150582Y-103364076D01*
X121156788Y-103364119D01*
X121161680Y-103363639D01*
X121355777Y-103343238D01*
X121387049Y-103336819D01*
X121418366Y-103330845D01*
X121423069Y-103329425D01*
X121423075Y-103329423D01*
X121609509Y-103271712D01*
X121638880Y-103259365D01*
X121668500Y-103247398D01*
X121672839Y-103245091D01*
X121844516Y-103152266D01*
X121870954Y-103134433D01*
X121897662Y-103116956D01*
X121901471Y-103113849D01*
X122051849Y-102989445D01*
X122074304Y-102966832D01*
X122097123Y-102944487D01*
X122100255Y-102940699D01*
X122223605Y-102789457D01*
X122241240Y-102762915D01*
X122259285Y-102736560D01*
X122261623Y-102732237D01*
X122353248Y-102559914D01*
X122365403Y-102530424D01*
X122377973Y-102501095D01*
X122379427Y-102496400D01*
X122435836Y-102309564D01*
X122442029Y-102278287D01*
X122448666Y-102247063D01*
X122449179Y-102242175D01*
X122468224Y-102047941D01*
X122469904Y-102030883D01*
X122469904Y-101975043D01*
X129188273Y-101975043D01*
X129188273Y-102682139D01*
X129326220Y-103375648D01*
X129596814Y-104028919D01*
X129989655Y-104616848D01*
X130489647Y-105116840D01*
X131077576Y-105509681D01*
X131730847Y-105780275D01*
X132424356Y-105918222D01*
X133131452Y-105918222D01*
X133824961Y-105780275D01*
X134478232Y-105509681D01*
X135066161Y-105116840D01*
X135566153Y-104616848D01*
X135958994Y-104028919D01*
X136229588Y-103375648D01*
X136367535Y-102682139D01*
X136367535Y-101975043D01*
X136229588Y-101281534D01*
X135958994Y-100628263D01*
X135566153Y-100040334D01*
X135405201Y-99879382D01*
X144777612Y-99879382D01*
X144777612Y-100586478D01*
X144915559Y-101279987D01*
X145186153Y-101933258D01*
X145578994Y-102521187D01*
X146078986Y-103021179D01*
X146666915Y-103414020D01*
X147320186Y-103684614D01*
X148013695Y-103822561D01*
X148720791Y-103822561D01*
X149414300Y-103684614D01*
X150067571Y-103414020D01*
X150655500Y-103021179D01*
X151155492Y-102521187D01*
X151548333Y-101933258D01*
X151818927Y-101279987D01*
X151956874Y-100586478D01*
X151956874Y-99879382D01*
X151818927Y-99185873D01*
X151548333Y-98532602D01*
X151155492Y-97944673D01*
X150655500Y-97444681D01*
X150067571Y-97051840D01*
X149414300Y-96781246D01*
X148720791Y-96643299D01*
X148013695Y-96643299D01*
X147320186Y-96781246D01*
X146666915Y-97051840D01*
X146078986Y-97444681D01*
X145578994Y-97944673D01*
X145186153Y-98532602D01*
X144915559Y-99185873D01*
X144777612Y-99879382D01*
X135405201Y-99879382D01*
X135066161Y-99540342D01*
X134478232Y-99147501D01*
X133824961Y-98876907D01*
X133131452Y-98738960D01*
X132424356Y-98738960D01*
X131730847Y-98876907D01*
X131077576Y-99147501D01*
X130489647Y-99540342D01*
X129989655Y-100040334D01*
X129596814Y-100628263D01*
X129326220Y-101281534D01*
X129188273Y-101975043D01*
X122469904Y-101975043D01*
X122469904Y-93040992D01*
X136517754Y-93040992D01*
X136517754Y-93986190D01*
X136691433Y-94915293D01*
X137032878Y-95796663D01*
X137530460Y-96600286D01*
X138167235Y-97298795D01*
X138921518Y-97868403D01*
X139767624Y-98289714D01*
X140676739Y-98548379D01*
X141617904Y-98635591D01*
X142559069Y-98548379D01*
X143468184Y-98289714D01*
X144314290Y-97868403D01*
X145068573Y-97298795D01*
X145705348Y-96600286D01*
X146202930Y-95796663D01*
X146544375Y-94915293D01*
X146718054Y-93986190D01*
X146718054Y-93040992D01*
X146544375Y-92111889D01*
X146202930Y-91230519D01*
X145705348Y-90426896D01*
X145068573Y-89728387D01*
X144314290Y-89158779D01*
X143468184Y-88737468D01*
X142559069Y-88478803D01*
X141617904Y-88391591D01*
X140676739Y-88478803D01*
X139767624Y-88737468D01*
X138921518Y-89158779D01*
X138167235Y-89728387D01*
X137530460Y-90426896D01*
X137032878Y-91230519D01*
X136691433Y-92111889D01*
X136517754Y-93040992D01*
X122469904Y-93040992D01*
X122469904Y-86440043D01*
X131318273Y-86440043D01*
X131318273Y-87147139D01*
X131456220Y-87840648D01*
X131726814Y-88493919D01*
X132119655Y-89081848D01*
X132619647Y-89581840D01*
X133207576Y-89974681D01*
X133860847Y-90245275D01*
X134554356Y-90383222D01*
X135261452Y-90383222D01*
X135954961Y-90245275D01*
X136608232Y-89974681D01*
X137196161Y-89581840D01*
X137696153Y-89081848D01*
X138088994Y-88493919D01*
X138359588Y-87840648D01*
X138497535Y-87147139D01*
X138497535Y-86440043D01*
X138359588Y-85746534D01*
X138088994Y-85093263D01*
X137696153Y-84505334D01*
X137500862Y-84310043D01*
X146878273Y-84310043D01*
X146878273Y-85017139D01*
X147016220Y-85710648D01*
X147286814Y-86363919D01*
X147679655Y-86951848D01*
X148179647Y-87451840D01*
X148767576Y-87844681D01*
X149420847Y-88115275D01*
X150114356Y-88253222D01*
X150821452Y-88253222D01*
X151514961Y-88115275D01*
X152168232Y-87844681D01*
X152756161Y-87451840D01*
X153256153Y-86951848D01*
X153648994Y-86363919D01*
X153919588Y-85710648D01*
X154057535Y-85017139D01*
X154057535Y-84310043D01*
X153919588Y-83616534D01*
X153648994Y-82963263D01*
X153256153Y-82375334D01*
X152756161Y-81875342D01*
X152168232Y-81482501D01*
X151514961Y-81211907D01*
X150821452Y-81073960D01*
X150114356Y-81073960D01*
X149420847Y-81211907D01*
X148767576Y-81482501D01*
X148179647Y-81875342D01*
X147679655Y-82375334D01*
X147286814Y-82963263D01*
X147016220Y-83616534D01*
X146878273Y-84310043D01*
X137500862Y-84310043D01*
X137196161Y-84005342D01*
X136608232Y-83612501D01*
X135954961Y-83341907D01*
X135261452Y-83203960D01*
X134554356Y-83203960D01*
X133860847Y-83341907D01*
X133207576Y-83612501D01*
X132619647Y-84005342D01*
X132119655Y-84505334D01*
X131726814Y-85093263D01*
X131456220Y-85746534D01*
X131318273Y-86440043D01*
X122469904Y-86440043D01*
X122469904Y-84996299D01*
X122468389Y-84980913D01*
X122468432Y-84974706D01*
X122467952Y-84969815D01*
X122447551Y-84775718D01*
X122441132Y-84744446D01*
X122435158Y-84713129D01*
X122433737Y-84708424D01*
X122376025Y-84521986D01*
X122363678Y-84492615D01*
X122351711Y-84462995D01*
X122349403Y-84458656D01*
X122256579Y-84286979D01*
X122238746Y-84260541D01*
X122221269Y-84233833D01*
X122218162Y-84230024D01*
X122093758Y-84079646D01*
X122071145Y-84057191D01*
X122048800Y-84034372D01*
X122045012Y-84031240D01*
X121893770Y-83907890D01*
X121867246Y-83890267D01*
X121840874Y-83872210D01*
X121836550Y-83869872D01*
X121664228Y-83778247D01*
X121634738Y-83766092D01*
X121605409Y-83753522D01*
X121600713Y-83752069D01*
X121413877Y-83695659D01*
X121382585Y-83689463D01*
X121351375Y-83682829D01*
X121346487Y-83682316D01*
X121152254Y-83663271D01*
X121135196Y-83661591D01*
X116969904Y-83661591D01*
X116969904Y-80529263D01*
X117044739Y-79690749D01*
X117144741Y-79325202D01*
X118705159Y-79325202D01*
X118705159Y-79701980D01*
X118778665Y-80071518D01*
X118922851Y-80419616D01*
X119132178Y-80732895D01*
X119398600Y-80999317D01*
X119711879Y-81208644D01*
X120059977Y-81352830D01*
X120429515Y-81426336D01*
X120806293Y-81426336D01*
X121175831Y-81352830D01*
X121523929Y-81208644D01*
X121837208Y-80999317D01*
X122103630Y-80732895D01*
X122312957Y-80419616D01*
X122457143Y-80071518D01*
X122530649Y-79701980D01*
X122530649Y-79325202D01*
X160705159Y-79325202D01*
X160705159Y-79701980D01*
X160778665Y-80071518D01*
X160922851Y-80419616D01*
X161132178Y-80732895D01*
X161398600Y-80999317D01*
X161711879Y-81208644D01*
X162059977Y-81352830D01*
X162429515Y-81426336D01*
X162806293Y-81426336D01*
X163175831Y-81352830D01*
X163523929Y-81208644D01*
X163837208Y-80999317D01*
X164103630Y-80732895D01*
X164312957Y-80419616D01*
X164457143Y-80071518D01*
X164530649Y-79701980D01*
X164530649Y-79325202D01*
X164457143Y-78955664D01*
X164312957Y-78607566D01*
X164103630Y-78294287D01*
X163837208Y-78027865D01*
X163523929Y-77818538D01*
X163175831Y-77674352D01*
X162806293Y-77600846D01*
X162429515Y-77600846D01*
X162059977Y-77674352D01*
X161711879Y-77818538D01*
X161398600Y-78027865D01*
X161132178Y-78294287D01*
X160922851Y-78607566D01*
X160778665Y-78955664D01*
X160705159Y-79325202D01*
X122530649Y-79325202D01*
X122457143Y-78955664D01*
X122312957Y-78607566D01*
X122103630Y-78294287D01*
X121837208Y-78027865D01*
X121523929Y-77818538D01*
X121175831Y-77674352D01*
X120806293Y-77600846D01*
X120429515Y-77600846D01*
X120059977Y-77674352D01*
X119711879Y-77818538D01*
X119398600Y-78027865D01*
X119132178Y-78294287D01*
X118922851Y-78607566D01*
X118778665Y-78955664D01*
X118705159Y-79325202D01*
X117144741Y-79325202D01*
X117262728Y-78893916D01*
X117618380Y-78148279D01*
X118100452Y-77477404D01*
X118693702Y-76902504D01*
X119379385Y-76441745D01*
X120135828Y-76109689D01*
X120941820Y-75916187D01*
X121630815Y-75865591D01*
X131265905Y-75865591D01*
X131265905Y-76030883D01*
G04 #@! TA.AperFunction,Conductor*
D13*
G36*
X131265905Y-76030883D02*
G01*
X131267419Y-76046260D01*
X131267376Y-76052475D01*
X131267856Y-76057367D01*
X131288257Y-76251464D01*
X131294676Y-76282736D01*
X131300650Y-76314053D01*
X131302071Y-76318758D01*
X131359783Y-76505196D01*
X131372130Y-76534567D01*
X131384097Y-76564187D01*
X131386404Y-76568526D01*
X131479229Y-76740203D01*
X131497062Y-76766641D01*
X131514539Y-76793349D01*
X131517646Y-76797158D01*
X131642050Y-76947536D01*
X131664663Y-76969991D01*
X131687008Y-76992810D01*
X131690796Y-76995942D01*
X131842038Y-77119292D01*
X131868580Y-77136927D01*
X131894935Y-77154972D01*
X131899258Y-77157310D01*
X132071581Y-77248935D01*
X132101071Y-77261090D01*
X132130400Y-77273660D01*
X132135095Y-77275114D01*
X132321931Y-77331523D01*
X132353208Y-77337716D01*
X132384432Y-77344353D01*
X132389320Y-77344866D01*
X132583554Y-77363911D01*
X132600612Y-77365591D01*
X150635196Y-77365591D01*
X150650582Y-77364076D01*
X150656788Y-77364119D01*
X150661680Y-77363639D01*
X150855777Y-77343238D01*
X150887049Y-77336819D01*
X150918366Y-77330845D01*
X150923069Y-77329425D01*
X150923075Y-77329423D01*
X151109509Y-77271712D01*
X151138880Y-77259365D01*
X151168500Y-77247398D01*
X151172839Y-77245091D01*
X151344516Y-77152266D01*
X151370954Y-77134433D01*
X151397662Y-77116956D01*
X151401471Y-77113849D01*
X151551849Y-76989445D01*
X151574304Y-76966832D01*
X151597123Y-76944487D01*
X151600255Y-76940699D01*
X151723605Y-76789457D01*
X151741240Y-76762915D01*
X151759285Y-76736560D01*
X151761623Y-76732237D01*
X151853248Y-76559914D01*
X151865403Y-76530424D01*
X151877973Y-76501095D01*
X151879427Y-76496400D01*
X151935836Y-76309564D01*
X151942029Y-76278287D01*
X151948666Y-76247063D01*
X151949179Y-76242175D01*
X151968224Y-76047941D01*
X151969904Y-76030883D01*
X151969904Y-75865591D01*
X161602232Y-75865591D01*
X162440746Y-75940426D01*
X163237579Y-76158415D01*
X163983216Y-76514067D01*
X164654091Y-76996139D01*
X165228991Y-77589389D01*
X165689750Y-78275072D01*
X166021806Y-79031515D01*
X166215308Y-79837507D01*
X166265905Y-80526516D01*
X166265904Y-83661591D01*
X161100612Y-83661591D01*
X161085226Y-83663106D01*
X161079019Y-83663063D01*
X161074128Y-83663543D01*
X160880031Y-83683944D01*
X160848759Y-83690363D01*
X160817442Y-83696337D01*
X160812739Y-83697757D01*
X160812733Y-83697759D01*
X160626299Y-83755470D01*
X160596928Y-83767817D01*
X160567308Y-83779784D01*
X160562969Y-83782092D01*
X160391292Y-83874916D01*
X160364854Y-83892749D01*
X160338146Y-83910226D01*
X160334337Y-83913333D01*
X160183959Y-84037737D01*
X160161504Y-84060350D01*
X160138685Y-84082695D01*
X160135553Y-84086483D01*
X160012203Y-84237725D01*
X159994580Y-84264249D01*
X159976523Y-84290621D01*
X159974185Y-84294945D01*
X159882560Y-84467267D01*
X159870405Y-84496757D01*
X159857835Y-84526086D01*
X159856382Y-84530782D01*
X159799972Y-84717618D01*
X159793776Y-84748910D01*
X159787142Y-84780120D01*
X159786629Y-84785008D01*
X159767584Y-84979241D01*
X159765904Y-84996300D01*
X159765905Y-102030883D01*
X159767419Y-102046260D01*
X159767376Y-102052475D01*
X159767856Y-102057367D01*
X159788257Y-102251464D01*
X159794676Y-102282736D01*
X159800650Y-102314053D01*
X159802071Y-102318758D01*
X159859783Y-102505196D01*
X159872130Y-102534567D01*
X159884097Y-102564187D01*
X159886404Y-102568526D01*
X159979229Y-102740203D01*
X159997062Y-102766641D01*
X160014539Y-102793349D01*
X160017646Y-102797158D01*
X160142050Y-102947536D01*
X160164663Y-102969991D01*
X160187008Y-102992810D01*
X160190796Y-102995942D01*
X160342038Y-103119292D01*
X160368580Y-103136927D01*
X160394935Y-103154972D01*
X160399258Y-103157310D01*
X160571581Y-103248935D01*
X160601071Y-103261090D01*
X160630400Y-103273660D01*
X160635095Y-103275114D01*
X160821931Y-103331523D01*
X160853208Y-103337716D01*
X160884432Y-103344353D01*
X160889320Y-103344866D01*
X161083554Y-103363911D01*
X161100612Y-103365591D01*
X166265905Y-103365591D01*
X166265904Y-106497919D01*
X166191069Y-107336433D01*
X165973080Y-108133264D01*
X165617427Y-108878906D01*
X165135356Y-109549778D01*
X164542106Y-110124678D01*
X163856423Y-110585437D01*
X163099980Y-110917493D01*
X162293988Y-111110995D01*
X161604993Y-111161591D01*
X151969904Y-111161591D01*
X151969904Y-110996299D01*
X151968389Y-110980913D01*
X151968432Y-110974706D01*
X151967952Y-110969815D01*
X151947551Y-110775718D01*
X151941132Y-110744446D01*
X151935158Y-110713129D01*
X151933737Y-110708424D01*
X151876025Y-110521986D01*
X151863678Y-110492615D01*
X151851711Y-110462995D01*
X151849403Y-110458656D01*
X151756579Y-110286979D01*
X151738746Y-110260541D01*
X151721269Y-110233833D01*
X151718162Y-110230024D01*
X151593758Y-110079646D01*
X151571145Y-110057191D01*
X151548800Y-110034372D01*
X151545012Y-110031240D01*
X151393770Y-109907890D01*
X151367246Y-109890267D01*
X151340874Y-109872210D01*
X151336550Y-109869872D01*
X151164228Y-109778247D01*
X151134738Y-109766092D01*
X151105409Y-109753522D01*
X151100713Y-109752069D01*
X150913877Y-109695659D01*
X150882585Y-109689463D01*
X150851375Y-109682829D01*
X150846487Y-109682316D01*
X150652254Y-109663271D01*
X150635196Y-109661591D01*
X132600612Y-109661591D01*
X132585226Y-109663106D01*
X132579019Y-109663063D01*
X132574128Y-109663543D01*
X132380031Y-109683944D01*
X132348759Y-109690363D01*
X132317442Y-109696337D01*
X132312739Y-109697757D01*
X132312733Y-109697759D01*
X132126299Y-109755470D01*
X132096928Y-109767817D01*
X132067308Y-109779784D01*
X132062969Y-109782092D01*
X131891292Y-109874916D01*
X131864854Y-109892749D01*
X131838146Y-109910226D01*
X131834337Y-109913333D01*
X131683959Y-110037737D01*
X131661504Y-110060350D01*
X131638685Y-110082695D01*
X131635553Y-110086483D01*
X131512203Y-110237725D01*
X131494580Y-110264249D01*
X131476523Y-110290621D01*
X131474185Y-110294945D01*
X131382560Y-110467267D01*
X131370405Y-110496757D01*
X131357835Y-110526086D01*
X131356382Y-110530782D01*
X131299972Y-110717618D01*
X131293776Y-110748910D01*
X131287142Y-110780120D01*
X131286629Y-110785008D01*
X131267633Y-110978746D01*
X131265904Y-110996300D01*
X131265904Y-111161591D01*
X121633576Y-111161591D01*
X120795062Y-111086756D01*
X119998231Y-110868767D01*
X119252589Y-110513114D01*
X118581717Y-110031043D01*
X118006817Y-109437793D01*
X117546058Y-108752110D01*
X117214002Y-107995667D01*
X117053038Y-107325202D01*
X118705159Y-107325202D01*
X118705159Y-107701980D01*
X118778665Y-108071518D01*
X118922851Y-108419616D01*
X119132178Y-108732895D01*
X119398600Y-108999317D01*
X119711879Y-109208644D01*
X120059977Y-109352830D01*
X120429515Y-109426336D01*
X120806293Y-109426336D01*
X121175831Y-109352830D01*
X121523929Y-109208644D01*
X121837208Y-108999317D01*
X122103630Y-108732895D01*
X122312957Y-108419616D01*
X122457143Y-108071518D01*
X122530649Y-107701980D01*
X122530649Y-107325202D01*
X160705159Y-107325202D01*
X160705159Y-107701980D01*
X160778665Y-108071518D01*
X160922851Y-108419616D01*
X161132178Y-108732895D01*
X161398600Y-108999317D01*
X161711879Y-109208644D01*
X162059977Y-109352830D01*
X162429515Y-109426336D01*
X162806293Y-109426336D01*
X163175831Y-109352830D01*
X163523929Y-109208644D01*
X163837208Y-108999317D01*
X164103630Y-108732895D01*
X164312957Y-108419616D01*
X164457143Y-108071518D01*
X164530649Y-107701980D01*
X164530649Y-107325202D01*
X164457143Y-106955664D01*
X164312957Y-106607566D01*
X164103630Y-106294287D01*
X163837208Y-106027865D01*
X163523929Y-105818538D01*
X163175831Y-105674352D01*
X162806293Y-105600846D01*
X162429515Y-105600846D01*
X162059977Y-105674352D01*
X161711879Y-105818538D01*
X161398600Y-106027865D01*
X161132178Y-106294287D01*
X160922851Y-106607566D01*
X160778665Y-106955664D01*
X160705159Y-107325202D01*
X122530649Y-107325202D01*
X122457143Y-106955664D01*
X122312957Y-106607566D01*
X122103630Y-106294287D01*
X121837208Y-106027865D01*
X121523929Y-105818538D01*
X121175831Y-105674352D01*
X120806293Y-105600846D01*
X120429515Y-105600846D01*
X120059977Y-105674352D01*
X119711879Y-105818538D01*
X119398600Y-106027865D01*
X119132178Y-106294287D01*
X118922851Y-106607566D01*
X118778665Y-106955664D01*
X118705159Y-107325202D01*
X117053038Y-107325202D01*
X117020500Y-107189675D01*
X116969904Y-106500680D01*
X116969904Y-103365591D01*
X121135196Y-103365591D01*
X121150582Y-103364076D01*
X121156788Y-103364119D01*
X121161680Y-103363639D01*
X121355777Y-103343238D01*
X121387049Y-103336819D01*
X121418366Y-103330845D01*
X121423069Y-103329425D01*
X121423075Y-103329423D01*
X121609509Y-103271712D01*
X121638880Y-103259365D01*
X121668500Y-103247398D01*
X121672839Y-103245091D01*
X121844516Y-103152266D01*
X121870954Y-103134433D01*
X121897662Y-103116956D01*
X121901471Y-103113849D01*
X122051849Y-102989445D01*
X122074304Y-102966832D01*
X122097123Y-102944487D01*
X122100255Y-102940699D01*
X122223605Y-102789457D01*
X122241240Y-102762915D01*
X122259285Y-102736560D01*
X122261623Y-102732237D01*
X122353248Y-102559914D01*
X122365403Y-102530424D01*
X122377973Y-102501095D01*
X122379427Y-102496400D01*
X122435836Y-102309564D01*
X122442029Y-102278287D01*
X122448666Y-102247063D01*
X122449179Y-102242175D01*
X122468224Y-102047941D01*
X122469904Y-102030883D01*
X122469904Y-101975043D01*
X129188273Y-101975043D01*
X129188273Y-102682139D01*
X129326220Y-103375648D01*
X129596814Y-104028919D01*
X129989655Y-104616848D01*
X130489647Y-105116840D01*
X131077576Y-105509681D01*
X131730847Y-105780275D01*
X132424356Y-105918222D01*
X133131452Y-105918222D01*
X133824961Y-105780275D01*
X134478232Y-105509681D01*
X135066161Y-105116840D01*
X135566153Y-104616848D01*
X135958994Y-104028919D01*
X136229588Y-103375648D01*
X136367535Y-102682139D01*
X136367535Y-101975043D01*
X136229588Y-101281534D01*
X135958994Y-100628263D01*
X135566153Y-100040334D01*
X135405201Y-99879382D01*
X144777612Y-99879382D01*
X144777612Y-100586478D01*
X144915559Y-101279987D01*
X145186153Y-101933258D01*
X145578994Y-102521187D01*
X146078986Y-103021179D01*
X146666915Y-103414020D01*
X147320186Y-103684614D01*
X148013695Y-103822561D01*
X148720791Y-103822561D01*
X149414300Y-103684614D01*
X150067571Y-103414020D01*
X150655500Y-103021179D01*
X151155492Y-102521187D01*
X151548333Y-101933258D01*
X151818927Y-101279987D01*
X151956874Y-100586478D01*
X151956874Y-99879382D01*
X151818927Y-99185873D01*
X151548333Y-98532602D01*
X151155492Y-97944673D01*
X150655500Y-97444681D01*
X150067571Y-97051840D01*
X149414300Y-96781246D01*
X148720791Y-96643299D01*
X148013695Y-96643299D01*
X147320186Y-96781246D01*
X146666915Y-97051840D01*
X146078986Y-97444681D01*
X145578994Y-97944673D01*
X145186153Y-98532602D01*
X144915559Y-99185873D01*
X144777612Y-99879382D01*
X135405201Y-99879382D01*
X135066161Y-99540342D01*
X134478232Y-99147501D01*
X133824961Y-98876907D01*
X133131452Y-98738960D01*
X132424356Y-98738960D01*
X131730847Y-98876907D01*
X131077576Y-99147501D01*
X130489647Y-99540342D01*
X129989655Y-100040334D01*
X129596814Y-100628263D01*
X129326220Y-101281534D01*
X129188273Y-101975043D01*
X122469904Y-101975043D01*
X122469904Y-93040992D01*
X136517754Y-93040992D01*
X136517754Y-93986190D01*
X136691433Y-94915293D01*
X137032878Y-95796663D01*
X137530460Y-96600286D01*
X138167235Y-97298795D01*
X138921518Y-97868403D01*
X139767624Y-98289714D01*
X140676739Y-98548379D01*
X141617904Y-98635591D01*
X142559069Y-98548379D01*
X143468184Y-98289714D01*
X144314290Y-97868403D01*
X145068573Y-97298795D01*
X145705348Y-96600286D01*
X146202930Y-95796663D01*
X146544375Y-94915293D01*
X146718054Y-93986190D01*
X146718054Y-93040992D01*
X146544375Y-92111889D01*
X146202930Y-91230519D01*
X145705348Y-90426896D01*
X145068573Y-89728387D01*
X144314290Y-89158779D01*
X143468184Y-88737468D01*
X142559069Y-88478803D01*
X141617904Y-88391591D01*
X140676739Y-88478803D01*
X139767624Y-88737468D01*
X138921518Y-89158779D01*
X138167235Y-89728387D01*
X137530460Y-90426896D01*
X137032878Y-91230519D01*
X136691433Y-92111889D01*
X136517754Y-93040992D01*
X122469904Y-93040992D01*
X122469904Y-86440043D01*
X131318273Y-86440043D01*
X131318273Y-87147139D01*
X131456220Y-87840648D01*
X131726814Y-88493919D01*
X132119655Y-89081848D01*
X132619647Y-89581840D01*
X133207576Y-89974681D01*
X133860847Y-90245275D01*
X134554356Y-90383222D01*
X135261452Y-90383222D01*
X135954961Y-90245275D01*
X136608232Y-89974681D01*
X137196161Y-89581840D01*
X137696153Y-89081848D01*
X138088994Y-88493919D01*
X138359588Y-87840648D01*
X138497535Y-87147139D01*
X138497535Y-86440043D01*
X138359588Y-85746534D01*
X138088994Y-85093263D01*
X137696153Y-84505334D01*
X137500862Y-84310043D01*
X146878273Y-84310043D01*
X146878273Y-85017139D01*
X147016220Y-85710648D01*
X147286814Y-86363919D01*
X147679655Y-86951848D01*
X148179647Y-87451840D01*
X148767576Y-87844681D01*
X149420847Y-88115275D01*
X150114356Y-88253222D01*
X150821452Y-88253222D01*
X151514961Y-88115275D01*
X152168232Y-87844681D01*
X152756161Y-87451840D01*
X153256153Y-86951848D01*
X153648994Y-86363919D01*
X153919588Y-85710648D01*
X154057535Y-85017139D01*
X154057535Y-84310043D01*
X153919588Y-83616534D01*
X153648994Y-82963263D01*
X153256153Y-82375334D01*
X152756161Y-81875342D01*
X152168232Y-81482501D01*
X151514961Y-81211907D01*
X150821452Y-81073960D01*
X150114356Y-81073960D01*
X149420847Y-81211907D01*
X148767576Y-81482501D01*
X148179647Y-81875342D01*
X147679655Y-82375334D01*
X147286814Y-82963263D01*
X147016220Y-83616534D01*
X146878273Y-84310043D01*
X137500862Y-84310043D01*
X137196161Y-84005342D01*
X136608232Y-83612501D01*
X135954961Y-83341907D01*
X135261452Y-83203960D01*
X134554356Y-83203960D01*
X133860847Y-83341907D01*
X133207576Y-83612501D01*
X132619647Y-84005342D01*
X132119655Y-84505334D01*
X131726814Y-85093263D01*
X131456220Y-85746534D01*
X131318273Y-86440043D01*
X122469904Y-86440043D01*
X122469904Y-84996299D01*
X122468389Y-84980913D01*
X122468432Y-84974706D01*
X122467952Y-84969815D01*
X122447551Y-84775718D01*
X122441132Y-84744446D01*
X122435158Y-84713129D01*
X122433737Y-84708424D01*
X122376025Y-84521986D01*
X122363678Y-84492615D01*
X122351711Y-84462995D01*
X122349403Y-84458656D01*
X122256579Y-84286979D01*
X122238746Y-84260541D01*
X122221269Y-84233833D01*
X122218162Y-84230024D01*
X122093758Y-84079646D01*
X122071145Y-84057191D01*
X122048800Y-84034372D01*
X122045012Y-84031240D01*
X121893770Y-83907890D01*
X121867246Y-83890267D01*
X121840874Y-83872210D01*
X121836550Y-83869872D01*
X121664228Y-83778247D01*
X121634738Y-83766092D01*
X121605409Y-83753522D01*
X121600713Y-83752069D01*
X121413877Y-83695659D01*
X121382585Y-83689463D01*
X121351375Y-83682829D01*
X121346487Y-83682316D01*
X121152254Y-83663271D01*
X121135196Y-83661591D01*
X116969904Y-83661591D01*
X116969904Y-80529263D01*
X117044739Y-79690749D01*
X117144741Y-79325202D01*
X118705159Y-79325202D01*
X118705159Y-79701980D01*
X118778665Y-80071518D01*
X118922851Y-80419616D01*
X119132178Y-80732895D01*
X119398600Y-80999317D01*
X119711879Y-81208644D01*
X120059977Y-81352830D01*
X120429515Y-81426336D01*
X120806293Y-81426336D01*
X121175831Y-81352830D01*
X121523929Y-81208644D01*
X121837208Y-80999317D01*
X122103630Y-80732895D01*
X122312957Y-80419616D01*
X122457143Y-80071518D01*
X122530649Y-79701980D01*
X122530649Y-79325202D01*
X160705159Y-79325202D01*
X160705159Y-79701980D01*
X160778665Y-80071518D01*
X160922851Y-80419616D01*
X161132178Y-80732895D01*
X161398600Y-80999317D01*
X161711879Y-81208644D01*
X162059977Y-81352830D01*
X162429515Y-81426336D01*
X162806293Y-81426336D01*
X163175831Y-81352830D01*
X163523929Y-81208644D01*
X163837208Y-80999317D01*
X164103630Y-80732895D01*
X164312957Y-80419616D01*
X164457143Y-80071518D01*
X164530649Y-79701980D01*
X164530649Y-79325202D01*
X164457143Y-78955664D01*
X164312957Y-78607566D01*
X164103630Y-78294287D01*
X163837208Y-78027865D01*
X163523929Y-77818538D01*
X163175831Y-77674352D01*
X162806293Y-77600846D01*
X162429515Y-77600846D01*
X162059977Y-77674352D01*
X161711879Y-77818538D01*
X161398600Y-78027865D01*
X161132178Y-78294287D01*
X160922851Y-78607566D01*
X160778665Y-78955664D01*
X160705159Y-79325202D01*
X122530649Y-79325202D01*
X122457143Y-78955664D01*
X122312957Y-78607566D01*
X122103630Y-78294287D01*
X121837208Y-78027865D01*
X121523929Y-77818538D01*
X121175831Y-77674352D01*
X120806293Y-77600846D01*
X120429515Y-77600846D01*
X120059977Y-77674352D01*
X119711879Y-77818538D01*
X119398600Y-78027865D01*
X119132178Y-78294287D01*
X118922851Y-78607566D01*
X118778665Y-78955664D01*
X118705159Y-79325202D01*
X117144741Y-79325202D01*
X117262728Y-78893916D01*
X117618380Y-78148279D01*
X118100452Y-77477404D01*
X118693702Y-76902504D01*
X119379385Y-76441745D01*
X120135828Y-76109689D01*
X120941820Y-75916187D01*
X121630815Y-75865591D01*
X131265905Y-75865591D01*
X131265905Y-76030883D01*
G37*
G04 #@! TD.AperFunction*
M02*
