G04 #@! TF.GenerationSoftware,KiCad,Pcbnew,(5.1.9)-1*
G04 #@! TF.CreationDate,2021-06-21T21:55:09+02:00*
G04 #@! TF.ProjectId,Driver,44726976-6572-42e6-9b69-6361645f7063,rev?*
G04 #@! TF.SameCoordinates,Original*
G04 #@! TF.FileFunction,Legend,Top*
G04 #@! TF.FilePolarity,Positive*
%FSLAX46Y46*%
G04 Gerber Fmt 4.6, Leading zero omitted, Abs format (unit mm)*
G04 Created by KiCad (PCBNEW (5.1.9)-1) date 2021-06-21 21:55:09*
%MOMM*%
%LPD*%
G01*
G04 APERTURE LIST*
%ADD10C,0.200000*%
%ADD11C,0.120000*%
%ADD12C,0.150000*%
%ADD13O,1.700000X1.700000*%
%ADD14R,1.700000X1.700000*%
G04 APERTURE END LIST*
D10*
X134582189Y-136238591D02*
X135153618Y-136238591D01*
X134467904Y-136581448D02*
X134867904Y-135381448D01*
X135267904Y-136581448D01*
X138425046Y-139505257D02*
X138901237Y-139505257D01*
X138329808Y-139790971D02*
X138663142Y-138790971D01*
X138996475Y-139790971D01*
X139282189Y-139743352D02*
X139425046Y-139790971D01*
X139663142Y-139790971D01*
X139758380Y-139743352D01*
X139805999Y-139695733D01*
X139853618Y-139600495D01*
X139853618Y-139505257D01*
X139805999Y-139410019D01*
X139758380Y-139362400D01*
X139663142Y-139314781D01*
X139472665Y-139267162D01*
X139377427Y-139219543D01*
X139329808Y-139171924D01*
X139282189Y-139076686D01*
X139282189Y-138981448D01*
X139329808Y-138886210D01*
X139377427Y-138838591D01*
X139472665Y-138790971D01*
X139710761Y-138790971D01*
X139853618Y-138838591D01*
X140758380Y-138790971D02*
X140282189Y-138790971D01*
X140234570Y-139267162D01*
X140282189Y-139219543D01*
X140377427Y-139171924D01*
X140615523Y-139171924D01*
X140710761Y-139219543D01*
X140758380Y-139267162D01*
X140805999Y-139362400D01*
X140805999Y-139600495D01*
X140758380Y-139695733D01*
X140710761Y-139743352D01*
X140615523Y-139790971D01*
X140377427Y-139790971D01*
X140282189Y-139743352D01*
X140234570Y-139695733D01*
X141425046Y-138790971D02*
X141520284Y-138790971D01*
X141615523Y-138838591D01*
X141663142Y-138886210D01*
X141710761Y-138981448D01*
X141758380Y-139171924D01*
X141758380Y-139410019D01*
X141710761Y-139600495D01*
X141663142Y-139695733D01*
X141615523Y-139743352D01*
X141520284Y-139790971D01*
X141425046Y-139790971D01*
X141329808Y-139743352D01*
X141282189Y-139695733D01*
X141234570Y-139600495D01*
X141186951Y-139410019D01*
X141186951Y-139171924D01*
X141234570Y-138981448D01*
X141282189Y-138886210D01*
X141329808Y-138838591D01*
X141425046Y-138790971D01*
X142615523Y-139124305D02*
X142615523Y-139790971D01*
X142377427Y-138743352D02*
X142139332Y-139457638D01*
X142758380Y-139457638D01*
X143044094Y-138790971D02*
X143710761Y-138790971D01*
X143282189Y-139790971D01*
X144091713Y-138790971D02*
X144091713Y-139600495D01*
X144139332Y-139695733D01*
X144186951Y-139743352D01*
X144282189Y-139790971D01*
X144472665Y-139790971D01*
X144567904Y-139743352D01*
X144615523Y-139695733D01*
X144663142Y-139600495D01*
X144663142Y-138790971D01*
X148353618Y-135852876D02*
X148525046Y-135910019D01*
X148582189Y-135967162D01*
X148639332Y-136081448D01*
X148639332Y-136252876D01*
X148582189Y-136367162D01*
X148525046Y-136424305D01*
X148410761Y-136481448D01*
X147953618Y-136481448D01*
X147953618Y-135281448D01*
X148353618Y-135281448D01*
X148467904Y-135338591D01*
X148525046Y-135395733D01*
X148582189Y-135510019D01*
X148582189Y-135624305D01*
X148525046Y-135738591D01*
X148467904Y-135795733D01*
X148353618Y-135852876D01*
X147953618Y-135852876D01*
D11*
X142927324Y-131728591D02*
X143208484Y-131728591D01*
X142927324Y-132748591D02*
X143208484Y-132748591D01*
X131237904Y-139808591D02*
X133897904Y-139808591D01*
X131237904Y-134668591D02*
X131237904Y-139808591D01*
X133897904Y-134668591D02*
X133897904Y-139808591D01*
X131237904Y-134668591D02*
X133897904Y-134668591D01*
X131237904Y-133398591D02*
X131237904Y-132068591D01*
X131237904Y-132068591D02*
X132567904Y-132068591D01*
X140208484Y-132748591D02*
X139927324Y-132748591D01*
X140208484Y-131728591D02*
X139927324Y-131728591D01*
X151897904Y-132068591D02*
X149237904Y-132068591D01*
X151897904Y-137208591D02*
X151897904Y-132068591D01*
X149237904Y-137208591D02*
X149237904Y-132068591D01*
X151897904Y-137208591D02*
X149237904Y-137208591D01*
X151897904Y-138478591D02*
X151897904Y-139808591D01*
X151897904Y-139808591D02*
X150567904Y-139808591D01*
X141567904Y-138548591D02*
X143767904Y-138548591D01*
X141567904Y-138548591D02*
X139367904Y-138548591D01*
X141567904Y-133328591D02*
X143767904Y-133328591D01*
X141567904Y-133328591D02*
X137967904Y-133328591D01*
D12*
X146004808Y-132975495D02*
X145547665Y-132975495D01*
X145776237Y-132975495D02*
X145776237Y-132175495D01*
X145700046Y-132289781D01*
X145623856Y-132365971D01*
X145547665Y-132404067D01*
X146500046Y-132175495D02*
X146576237Y-132175495D01*
X146652427Y-132213591D01*
X146690523Y-132251686D01*
X146728618Y-132327876D01*
X146766713Y-132480257D01*
X146766713Y-132670733D01*
X146728618Y-132823114D01*
X146690523Y-132899305D01*
X146652427Y-132937400D01*
X146576237Y-132975495D01*
X146500046Y-132975495D01*
X146423856Y-132937400D01*
X146385761Y-132899305D01*
X146347665Y-132823114D01*
X146309570Y-132670733D01*
X146309570Y-132480257D01*
X146347665Y-132327876D01*
X146385761Y-132251686D01*
X146423856Y-132213591D01*
X146500046Y-132175495D01*
X147261951Y-132175495D02*
X147338142Y-132175495D01*
X147414332Y-132213591D01*
X147452427Y-132251686D01*
X147490523Y-132327876D01*
X147528618Y-132480257D01*
X147528618Y-132670733D01*
X147490523Y-132823114D01*
X147452427Y-132899305D01*
X147414332Y-132937400D01*
X147338142Y-132975495D01*
X147261951Y-132975495D01*
X147185761Y-132937400D01*
X147147665Y-132899305D01*
X147109570Y-132823114D01*
X147071475Y-132670733D01*
X147071475Y-132480257D01*
X147109570Y-132327876D01*
X147147665Y-132251686D01*
X147185761Y-132213591D01*
X147261951Y-132175495D01*
X147871475Y-132442162D02*
X147871475Y-132975495D01*
X147871475Y-132518352D02*
X147909570Y-132480257D01*
X147985761Y-132442162D01*
X148100046Y-132442162D01*
X148176237Y-132480257D01*
X148214332Y-132556448D01*
X148214332Y-132975495D01*
X148861951Y-132556448D02*
X148595284Y-132556448D01*
X148595284Y-132975495D02*
X148595284Y-132175495D01*
X148976237Y-132175495D01*
X135260761Y-133000495D02*
X134803618Y-133000495D01*
X135032189Y-133000495D02*
X135032189Y-132200495D01*
X134955999Y-132314781D01*
X134879808Y-132390971D01*
X134803618Y-132429067D01*
X135755999Y-132200495D02*
X135832189Y-132200495D01*
X135908380Y-132238591D01*
X135946475Y-132276686D01*
X135984570Y-132352876D01*
X136022665Y-132505257D01*
X136022665Y-132695733D01*
X135984570Y-132848114D01*
X135946475Y-132924305D01*
X135908380Y-132962400D01*
X135832189Y-133000495D01*
X135755999Y-133000495D01*
X135679808Y-132962400D01*
X135641713Y-132924305D01*
X135603618Y-132848114D01*
X135565523Y-132695733D01*
X135565523Y-132505257D01*
X135603618Y-132352876D01*
X135641713Y-132276686D01*
X135679808Y-132238591D01*
X135755999Y-132200495D01*
X136708380Y-132467162D02*
X136708380Y-133000495D01*
X136365523Y-132467162D02*
X136365523Y-132886210D01*
X136403618Y-132962400D01*
X136479808Y-133000495D01*
X136594094Y-133000495D01*
X136670284Y-132962400D01*
X136708380Y-132924305D01*
X137355999Y-132581448D02*
X137089332Y-132581448D01*
X137089332Y-133000495D02*
X137089332Y-132200495D01*
X137470284Y-132200495D01*
X140780999Y-135415971D02*
X140780999Y-136225495D01*
X140828618Y-136320733D01*
X140876237Y-136368352D01*
X140971475Y-136415971D01*
X141161951Y-136415971D01*
X141257189Y-136368352D01*
X141304808Y-136320733D01*
X141352427Y-136225495D01*
X141352427Y-135415971D01*
X141780999Y-135511210D02*
X141828618Y-135463591D01*
X141923856Y-135415971D01*
X142161951Y-135415971D01*
X142257189Y-135463591D01*
X142304808Y-135511210D01*
X142352427Y-135606448D01*
X142352427Y-135701686D01*
X142304808Y-135844543D01*
X141733380Y-136415971D01*
X142352427Y-136415971D01*
%LPC*%
G36*
G01*
X143392904Y-132488591D02*
X143392904Y-131988591D01*
G75*
G02*
X143617904Y-131763591I225000J0D01*
G01*
X144067904Y-131763591D01*
G75*
G02*
X144292904Y-131988591I0J-225000D01*
G01*
X144292904Y-132488591D01*
G75*
G02*
X144067904Y-132713591I-225000J0D01*
G01*
X143617904Y-132713591D01*
G75*
G02*
X143392904Y-132488591I0J225000D01*
G01*
G37*
G36*
G01*
X141842904Y-132488591D02*
X141842904Y-131988591D01*
G75*
G02*
X142067904Y-131763591I225000J0D01*
G01*
X142517904Y-131763591D01*
G75*
G02*
X142742904Y-131988591I0J-225000D01*
G01*
X142742904Y-132488591D01*
G75*
G02*
X142517904Y-132713591I-225000J0D01*
G01*
X142067904Y-132713591D01*
G75*
G02*
X141842904Y-132488591I0J225000D01*
G01*
G37*
D13*
X132567904Y-138478591D03*
X132567904Y-135938591D03*
D14*
X132567904Y-133398591D03*
G36*
G01*
X139742904Y-131988591D02*
X139742904Y-132488591D01*
G75*
G02*
X139517904Y-132713591I-225000J0D01*
G01*
X139067904Y-132713591D01*
G75*
G02*
X138842904Y-132488591I0J225000D01*
G01*
X138842904Y-131988591D01*
G75*
G02*
X139067904Y-131763591I225000J0D01*
G01*
X139517904Y-131763591D01*
G75*
G02*
X139742904Y-131988591I0J-225000D01*
G01*
G37*
G36*
G01*
X141292904Y-131988591D02*
X141292904Y-132488591D01*
G75*
G02*
X141067904Y-132713591I-225000J0D01*
G01*
X140617904Y-132713591D01*
G75*
G02*
X140392904Y-132488591I0J225000D01*
G01*
X140392904Y-131988591D01*
G75*
G02*
X140617904Y-131763591I225000J0D01*
G01*
X141067904Y-131763591D01*
G75*
G02*
X141292904Y-131988591I0J-225000D01*
G01*
G37*
D13*
X150567904Y-133398591D03*
X150567904Y-135938591D03*
D14*
X150567904Y-138478591D03*
G36*
G01*
X143692904Y-134088591D02*
X143692904Y-133888591D01*
G75*
G02*
X143792904Y-133788591I100000J0D01*
G01*
X145067904Y-133788591D01*
G75*
G02*
X145167904Y-133888591I0J-100000D01*
G01*
X145167904Y-134088591D01*
G75*
G02*
X145067904Y-134188591I-100000J0D01*
G01*
X143792904Y-134188591D01*
G75*
G02*
X143692904Y-134088591I0J100000D01*
G01*
G37*
G36*
G01*
X143692904Y-134738591D02*
X143692904Y-134538591D01*
G75*
G02*
X143792904Y-134438591I100000J0D01*
G01*
X145067904Y-134438591D01*
G75*
G02*
X145167904Y-134538591I0J-100000D01*
G01*
X145167904Y-134738591D01*
G75*
G02*
X145067904Y-134838591I-100000J0D01*
G01*
X143792904Y-134838591D01*
G75*
G02*
X143692904Y-134738591I0J100000D01*
G01*
G37*
G36*
G01*
X143692904Y-135388591D02*
X143692904Y-135188591D01*
G75*
G02*
X143792904Y-135088591I100000J0D01*
G01*
X145067904Y-135088591D01*
G75*
G02*
X145167904Y-135188591I0J-100000D01*
G01*
X145167904Y-135388591D01*
G75*
G02*
X145067904Y-135488591I-100000J0D01*
G01*
X143792904Y-135488591D01*
G75*
G02*
X143692904Y-135388591I0J100000D01*
G01*
G37*
G36*
G01*
X143692904Y-136038591D02*
X143692904Y-135838591D01*
G75*
G02*
X143792904Y-135738591I100000J0D01*
G01*
X145067904Y-135738591D01*
G75*
G02*
X145167904Y-135838591I0J-100000D01*
G01*
X145167904Y-136038591D01*
G75*
G02*
X145067904Y-136138591I-100000J0D01*
G01*
X143792904Y-136138591D01*
G75*
G02*
X143692904Y-136038591I0J100000D01*
G01*
G37*
G36*
G01*
X143692904Y-136688591D02*
X143692904Y-136488591D01*
G75*
G02*
X143792904Y-136388591I100000J0D01*
G01*
X145067904Y-136388591D01*
G75*
G02*
X145167904Y-136488591I0J-100000D01*
G01*
X145167904Y-136688591D01*
G75*
G02*
X145067904Y-136788591I-100000J0D01*
G01*
X143792904Y-136788591D01*
G75*
G02*
X143692904Y-136688591I0J100000D01*
G01*
G37*
G36*
G01*
X143692904Y-137338591D02*
X143692904Y-137138591D01*
G75*
G02*
X143792904Y-137038591I100000J0D01*
G01*
X145067904Y-137038591D01*
G75*
G02*
X145167904Y-137138591I0J-100000D01*
G01*
X145167904Y-137338591D01*
G75*
G02*
X145067904Y-137438591I-100000J0D01*
G01*
X143792904Y-137438591D01*
G75*
G02*
X143692904Y-137338591I0J100000D01*
G01*
G37*
G36*
G01*
X143692904Y-137988591D02*
X143692904Y-137788591D01*
G75*
G02*
X143792904Y-137688591I100000J0D01*
G01*
X145067904Y-137688591D01*
G75*
G02*
X145167904Y-137788591I0J-100000D01*
G01*
X145167904Y-137988591D01*
G75*
G02*
X145067904Y-138088591I-100000J0D01*
G01*
X143792904Y-138088591D01*
G75*
G02*
X143692904Y-137988591I0J100000D01*
G01*
G37*
G36*
G01*
X137967904Y-137988591D02*
X137967904Y-137788591D01*
G75*
G02*
X138067904Y-137688591I100000J0D01*
G01*
X139342904Y-137688591D01*
G75*
G02*
X139442904Y-137788591I0J-100000D01*
G01*
X139442904Y-137988591D01*
G75*
G02*
X139342904Y-138088591I-100000J0D01*
G01*
X138067904Y-138088591D01*
G75*
G02*
X137967904Y-137988591I0J100000D01*
G01*
G37*
G36*
G01*
X137967904Y-137338591D02*
X137967904Y-137138591D01*
G75*
G02*
X138067904Y-137038591I100000J0D01*
G01*
X139342904Y-137038591D01*
G75*
G02*
X139442904Y-137138591I0J-100000D01*
G01*
X139442904Y-137338591D01*
G75*
G02*
X139342904Y-137438591I-100000J0D01*
G01*
X138067904Y-137438591D01*
G75*
G02*
X137967904Y-137338591I0J100000D01*
G01*
G37*
G36*
G01*
X137967904Y-136688591D02*
X137967904Y-136488591D01*
G75*
G02*
X138067904Y-136388591I100000J0D01*
G01*
X139342904Y-136388591D01*
G75*
G02*
X139442904Y-136488591I0J-100000D01*
G01*
X139442904Y-136688591D01*
G75*
G02*
X139342904Y-136788591I-100000J0D01*
G01*
X138067904Y-136788591D01*
G75*
G02*
X137967904Y-136688591I0J100000D01*
G01*
G37*
G36*
G01*
X137967904Y-136038591D02*
X137967904Y-135838591D01*
G75*
G02*
X138067904Y-135738591I100000J0D01*
G01*
X139342904Y-135738591D01*
G75*
G02*
X139442904Y-135838591I0J-100000D01*
G01*
X139442904Y-136038591D01*
G75*
G02*
X139342904Y-136138591I-100000J0D01*
G01*
X138067904Y-136138591D01*
G75*
G02*
X137967904Y-136038591I0J100000D01*
G01*
G37*
G36*
G01*
X137967904Y-135388591D02*
X137967904Y-135188591D01*
G75*
G02*
X138067904Y-135088591I100000J0D01*
G01*
X139342904Y-135088591D01*
G75*
G02*
X139442904Y-135188591I0J-100000D01*
G01*
X139442904Y-135388591D01*
G75*
G02*
X139342904Y-135488591I-100000J0D01*
G01*
X138067904Y-135488591D01*
G75*
G02*
X137967904Y-135388591I0J100000D01*
G01*
G37*
G36*
G01*
X137967904Y-134738591D02*
X137967904Y-134538591D01*
G75*
G02*
X138067904Y-134438591I100000J0D01*
G01*
X139342904Y-134438591D01*
G75*
G02*
X139442904Y-134538591I0J-100000D01*
G01*
X139442904Y-134738591D01*
G75*
G02*
X139342904Y-134838591I-100000J0D01*
G01*
X138067904Y-134838591D01*
G75*
G02*
X137967904Y-134738591I0J100000D01*
G01*
G37*
G36*
G01*
X137967904Y-134088591D02*
X137967904Y-133888591D01*
G75*
G02*
X138067904Y-133788591I100000J0D01*
G01*
X139342904Y-133788591D01*
G75*
G02*
X139442904Y-133888591I0J-100000D01*
G01*
X139442904Y-134088591D01*
G75*
G02*
X139342904Y-134188591I-100000J0D01*
G01*
X138067904Y-134188591D01*
G75*
G02*
X137967904Y-134088591I0J100000D01*
G01*
G37*
M02*
