G04 #@! TF.GenerationSoftware,KiCad,Pcbnew,(5.1.9)-1*
G04 #@! TF.CreationDate,2021-06-21T21:55:09+02:00*
G04 #@! TF.ProjectId,Driver,44726976-6572-42e6-9b69-6361645f7063,rev?*
G04 #@! TF.SameCoordinates,Original*
G04 #@! TF.FileFunction,Copper,L2,Bot*
G04 #@! TF.FilePolarity,Positive*
%FSLAX46Y46*%
G04 Gerber Fmt 4.6, Leading zero omitted, Abs format (unit mm)*
G04 Created by KiCad (PCBNEW (5.1.9)-1) date 2021-06-21 21:55:09*
%MOMM*%
%LPD*%
G01*
G04 APERTURE LIST*
G04 #@! TA.AperFunction,ComponentPad*
%ADD10O,1.700000X1.700000*%
G04 #@! TD*
G04 #@! TA.AperFunction,ComponentPad*
%ADD11R,1.700000X1.700000*%
G04 #@! TD*
G04 #@! TA.AperFunction,ViaPad*
%ADD12C,0.600000*%
G04 #@! TD*
G04 #@! TA.AperFunction,Conductor*
%ADD13C,0.300000*%
G04 #@! TD*
G04 #@! TA.AperFunction,Conductor*
%ADD14C,0.254000*%
G04 #@! TD*
G04 #@! TA.AperFunction,Conductor*
%ADD15C,0.100000*%
G04 #@! TD*
G04 APERTURE END LIST*
D10*
X132567904Y-138478591D03*
X132567904Y-135938591D03*
D11*
X132567904Y-133398591D03*
D10*
X150567904Y-133398591D03*
X150567904Y-135938591D03*
D11*
X150567904Y-138478591D03*
D12*
X134767904Y-137338591D03*
X148267904Y-137338591D03*
X145067904Y-132638591D03*
X140067904Y-136538591D03*
X145067904Y-131938591D03*
X138067904Y-131938591D03*
X138067904Y-132638591D03*
X136767904Y-134638591D03*
X136767904Y-136738591D03*
D13*
X136767904Y-136738591D02*
X136767904Y-134638591D01*
D14*
X146982323Y-132057788D02*
X147011923Y-132069637D01*
X147041392Y-132081913D01*
X147046102Y-132083319D01*
X147612663Y-132248088D01*
X147644007Y-132253962D01*
X147675292Y-132260280D01*
X147680185Y-132260743D01*
X148267959Y-132312329D01*
X148299842Y-132312004D01*
X148331764Y-132312124D01*
X148336654Y-132311629D01*
X148923253Y-132248065D01*
X148954448Y-132241557D01*
X148985803Y-132235471D01*
X148990503Y-132234035D01*
X149553585Y-132057746D01*
X149582950Y-132045290D01*
X149612497Y-132033242D01*
X149616830Y-132030920D01*
X150057913Y-131790591D01*
X150550689Y-131790591D01*
X150790559Y-131814110D01*
X151004730Y-131878772D01*
X151202263Y-131983803D01*
X151375632Y-132125199D01*
X151431667Y-132192934D01*
X151199156Y-132054434D01*
X150924795Y-131957110D01*
X150694904Y-132077777D01*
X150694904Y-133271591D01*
X150714904Y-133271591D01*
X150714904Y-133525591D01*
X150694904Y-133525591D01*
X150694904Y-133545591D01*
X150440904Y-133545591D01*
X150440904Y-133525591D01*
X149247749Y-133525591D01*
X149126428Y-133755481D01*
X149171079Y-133902690D01*
X149296263Y-134165511D01*
X149470316Y-134398860D01*
X149686549Y-134593769D01*
X149936652Y-134742748D01*
X150175083Y-134827327D01*
X150010385Y-134895547D01*
X149817610Y-135024355D01*
X149653668Y-135188297D01*
X149524860Y-135381072D01*
X149436135Y-135595273D01*
X149390904Y-135822667D01*
X149390904Y-136054515D01*
X149436135Y-136281909D01*
X149524860Y-136496110D01*
X149653668Y-136688885D01*
X149817610Y-136852827D01*
X150010385Y-136981635D01*
X150224586Y-137070360D01*
X150451980Y-137115591D01*
X150683828Y-137115591D01*
X150911222Y-137070360D01*
X151125423Y-136981635D01*
X151318198Y-136852827D01*
X151482140Y-136688885D01*
X151610948Y-136496110D01*
X151699673Y-136281909D01*
X151715905Y-136200306D01*
X151715905Y-137492429D01*
X151691110Y-137446041D01*
X151650247Y-137396248D01*
X151600454Y-137355385D01*
X151543647Y-137325021D01*
X151482007Y-137306323D01*
X151417904Y-137300009D01*
X149717904Y-137300009D01*
X149653801Y-137306323D01*
X149592161Y-137325021D01*
X149535354Y-137355385D01*
X149485561Y-137396248D01*
X149444698Y-137446041D01*
X149414334Y-137502848D01*
X149395636Y-137564488D01*
X149389322Y-137628591D01*
X149389322Y-139328591D01*
X149395636Y-139392694D01*
X149414334Y-139454334D01*
X149444698Y-139511141D01*
X149485561Y-139560934D01*
X149535354Y-139601797D01*
X149592161Y-139632161D01*
X149653801Y-139650859D01*
X149717904Y-139657173D01*
X150812348Y-139657173D01*
X150798404Y-139661490D01*
X150559575Y-139686591D01*
X136668616Y-139686591D01*
X136153485Y-139419393D01*
X136123852Y-139407532D01*
X136094416Y-139395269D01*
X136089706Y-139393863D01*
X135523145Y-139229094D01*
X135491801Y-139223220D01*
X135460516Y-139216902D01*
X135455623Y-139216439D01*
X134867849Y-139164853D01*
X134835966Y-139165178D01*
X134804044Y-139165058D01*
X134799154Y-139165553D01*
X134212555Y-139229116D01*
X134181329Y-139235631D01*
X134150005Y-139241711D01*
X134145304Y-139243147D01*
X133582223Y-139419437D01*
X133552879Y-139431883D01*
X133523311Y-139443940D01*
X133518979Y-139446262D01*
X133079349Y-139685799D01*
X132584855Y-139686565D01*
X132345250Y-139663072D01*
X132131077Y-139598409D01*
X131933547Y-139493380D01*
X131760176Y-139351983D01*
X131680720Y-139255937D01*
X131817610Y-139392827D01*
X132010385Y-139521635D01*
X132224586Y-139610360D01*
X132451980Y-139655591D01*
X132683828Y-139655591D01*
X132911222Y-139610360D01*
X133125423Y-139521635D01*
X133318198Y-139392827D01*
X133482140Y-139228885D01*
X133610948Y-139036110D01*
X133699673Y-138821909D01*
X133744904Y-138594515D01*
X133744904Y-138362667D01*
X133699673Y-138135273D01*
X133610948Y-137921072D01*
X133482140Y-137728297D01*
X133318198Y-137564355D01*
X133125423Y-137435547D01*
X132911222Y-137346822D01*
X132683828Y-137301591D01*
X132451980Y-137301591D01*
X132224586Y-137346822D01*
X132010385Y-137435547D01*
X131817610Y-137564355D01*
X131653668Y-137728297D01*
X131524860Y-137921072D01*
X131436135Y-138135273D01*
X131419904Y-138216873D01*
X131419904Y-136200309D01*
X131436135Y-136281909D01*
X131524860Y-136496110D01*
X131653668Y-136688885D01*
X131817610Y-136852827D01*
X132010385Y-136981635D01*
X132224586Y-137070360D01*
X132451980Y-137115591D01*
X132683828Y-137115591D01*
X132911222Y-137070360D01*
X133125423Y-136981635D01*
X133318198Y-136852827D01*
X133482140Y-136688885D01*
X133610948Y-136496110D01*
X133699673Y-136281909D01*
X133744904Y-136054515D01*
X133744904Y-135822667D01*
X133699673Y-135595273D01*
X133610948Y-135381072D01*
X133482140Y-135188297D01*
X133318198Y-135024355D01*
X133125423Y-134895547D01*
X132911222Y-134806822D01*
X132683828Y-134761591D01*
X132451980Y-134761591D01*
X132224586Y-134806822D01*
X132010385Y-134895547D01*
X131817610Y-135024355D01*
X131653668Y-135188297D01*
X131524860Y-135381072D01*
X131436135Y-135595273D01*
X131419904Y-135676873D01*
X131419904Y-134384755D01*
X131444698Y-134431141D01*
X131485561Y-134480934D01*
X131535354Y-134521797D01*
X131592161Y-134552161D01*
X131653801Y-134570859D01*
X131717904Y-134577173D01*
X133417904Y-134577173D01*
X133421315Y-134576837D01*
X136140904Y-134576837D01*
X136140904Y-134700345D01*
X136164999Y-134821480D01*
X136212264Y-134935587D01*
X136280881Y-135038280D01*
X136290905Y-135048304D01*
X136290904Y-136328879D01*
X136280881Y-136338902D01*
X136212264Y-136441595D01*
X136164999Y-136555702D01*
X136140904Y-136676837D01*
X136140904Y-136800345D01*
X136164999Y-136921480D01*
X136212264Y-137035587D01*
X136280881Y-137138280D01*
X136368215Y-137225614D01*
X136470908Y-137294231D01*
X136585015Y-137341496D01*
X136706150Y-137365591D01*
X136829658Y-137365591D01*
X136950793Y-137341496D01*
X137064900Y-137294231D01*
X137167593Y-137225614D01*
X137254927Y-137138280D01*
X137323544Y-137035587D01*
X137370809Y-136921480D01*
X137394904Y-136800345D01*
X137394904Y-136676837D01*
X137370809Y-136555702D01*
X137323544Y-136441595D01*
X137254927Y-136338902D01*
X137244904Y-136328879D01*
X137244904Y-135048303D01*
X137254927Y-135038280D01*
X137323544Y-134935587D01*
X137370809Y-134821480D01*
X137394904Y-134700345D01*
X137394904Y-134576837D01*
X137370809Y-134455702D01*
X137323544Y-134341595D01*
X137254927Y-134238902D01*
X137167593Y-134151568D01*
X137064900Y-134082951D01*
X136950793Y-134035686D01*
X136829658Y-134011591D01*
X136706150Y-134011591D01*
X136585015Y-134035686D01*
X136470908Y-134082951D01*
X136368215Y-134151568D01*
X136280881Y-134238902D01*
X136212264Y-134341595D01*
X136164999Y-134455702D01*
X136140904Y-134576837D01*
X133421315Y-134576837D01*
X133482007Y-134570859D01*
X133543647Y-134552161D01*
X133600454Y-134521797D01*
X133650247Y-134480934D01*
X133691110Y-134431141D01*
X133721474Y-134374334D01*
X133740172Y-134312694D01*
X133746486Y-134248591D01*
X133746486Y-133041701D01*
X149126428Y-133041701D01*
X149247749Y-133271591D01*
X150440904Y-133271591D01*
X150440904Y-132077777D01*
X150211013Y-131957110D01*
X149936652Y-132054434D01*
X149686549Y-132203413D01*
X149470316Y-132398322D01*
X149296263Y-132631671D01*
X149171079Y-132894492D01*
X149126428Y-133041701D01*
X133746486Y-133041701D01*
X133746486Y-132548591D01*
X133740172Y-132484488D01*
X133721474Y-132422848D01*
X133691110Y-132366041D01*
X133650247Y-132316248D01*
X133600454Y-132275385D01*
X133543647Y-132245021D01*
X133482007Y-132226323D01*
X133417904Y-132220009D01*
X131717904Y-132220009D01*
X131678653Y-132223875D01*
X131754512Y-132130863D01*
X131926896Y-131988255D01*
X132123691Y-131881848D01*
X132337404Y-131815692D01*
X132576234Y-131790591D01*
X146467192Y-131790591D01*
X146982323Y-132057788D01*
G04 #@! TA.AperFunction,Conductor*
D15*
G36*
X146982323Y-132057788D02*
G01*
X147011923Y-132069637D01*
X147041392Y-132081913D01*
X147046102Y-132083319D01*
X147612663Y-132248088D01*
X147644007Y-132253962D01*
X147675292Y-132260280D01*
X147680185Y-132260743D01*
X148267959Y-132312329D01*
X148299842Y-132312004D01*
X148331764Y-132312124D01*
X148336654Y-132311629D01*
X148923253Y-132248065D01*
X148954448Y-132241557D01*
X148985803Y-132235471D01*
X148990503Y-132234035D01*
X149553585Y-132057746D01*
X149582950Y-132045290D01*
X149612497Y-132033242D01*
X149616830Y-132030920D01*
X150057913Y-131790591D01*
X150550689Y-131790591D01*
X150790559Y-131814110D01*
X151004730Y-131878772D01*
X151202263Y-131983803D01*
X151375632Y-132125199D01*
X151431667Y-132192934D01*
X151199156Y-132054434D01*
X150924795Y-131957110D01*
X150694904Y-132077777D01*
X150694904Y-133271591D01*
X150714904Y-133271591D01*
X150714904Y-133525591D01*
X150694904Y-133525591D01*
X150694904Y-133545591D01*
X150440904Y-133545591D01*
X150440904Y-133525591D01*
X149247749Y-133525591D01*
X149126428Y-133755481D01*
X149171079Y-133902690D01*
X149296263Y-134165511D01*
X149470316Y-134398860D01*
X149686549Y-134593769D01*
X149936652Y-134742748D01*
X150175083Y-134827327D01*
X150010385Y-134895547D01*
X149817610Y-135024355D01*
X149653668Y-135188297D01*
X149524860Y-135381072D01*
X149436135Y-135595273D01*
X149390904Y-135822667D01*
X149390904Y-136054515D01*
X149436135Y-136281909D01*
X149524860Y-136496110D01*
X149653668Y-136688885D01*
X149817610Y-136852827D01*
X150010385Y-136981635D01*
X150224586Y-137070360D01*
X150451980Y-137115591D01*
X150683828Y-137115591D01*
X150911222Y-137070360D01*
X151125423Y-136981635D01*
X151318198Y-136852827D01*
X151482140Y-136688885D01*
X151610948Y-136496110D01*
X151699673Y-136281909D01*
X151715905Y-136200306D01*
X151715905Y-137492429D01*
X151691110Y-137446041D01*
X151650247Y-137396248D01*
X151600454Y-137355385D01*
X151543647Y-137325021D01*
X151482007Y-137306323D01*
X151417904Y-137300009D01*
X149717904Y-137300009D01*
X149653801Y-137306323D01*
X149592161Y-137325021D01*
X149535354Y-137355385D01*
X149485561Y-137396248D01*
X149444698Y-137446041D01*
X149414334Y-137502848D01*
X149395636Y-137564488D01*
X149389322Y-137628591D01*
X149389322Y-139328591D01*
X149395636Y-139392694D01*
X149414334Y-139454334D01*
X149444698Y-139511141D01*
X149485561Y-139560934D01*
X149535354Y-139601797D01*
X149592161Y-139632161D01*
X149653801Y-139650859D01*
X149717904Y-139657173D01*
X150812348Y-139657173D01*
X150798404Y-139661490D01*
X150559575Y-139686591D01*
X136668616Y-139686591D01*
X136153485Y-139419393D01*
X136123852Y-139407532D01*
X136094416Y-139395269D01*
X136089706Y-139393863D01*
X135523145Y-139229094D01*
X135491801Y-139223220D01*
X135460516Y-139216902D01*
X135455623Y-139216439D01*
X134867849Y-139164853D01*
X134835966Y-139165178D01*
X134804044Y-139165058D01*
X134799154Y-139165553D01*
X134212555Y-139229116D01*
X134181329Y-139235631D01*
X134150005Y-139241711D01*
X134145304Y-139243147D01*
X133582223Y-139419437D01*
X133552879Y-139431883D01*
X133523311Y-139443940D01*
X133518979Y-139446262D01*
X133079349Y-139685799D01*
X132584855Y-139686565D01*
X132345250Y-139663072D01*
X132131077Y-139598409D01*
X131933547Y-139493380D01*
X131760176Y-139351983D01*
X131680720Y-139255937D01*
X131817610Y-139392827D01*
X132010385Y-139521635D01*
X132224586Y-139610360D01*
X132451980Y-139655591D01*
X132683828Y-139655591D01*
X132911222Y-139610360D01*
X133125423Y-139521635D01*
X133318198Y-139392827D01*
X133482140Y-139228885D01*
X133610948Y-139036110D01*
X133699673Y-138821909D01*
X133744904Y-138594515D01*
X133744904Y-138362667D01*
X133699673Y-138135273D01*
X133610948Y-137921072D01*
X133482140Y-137728297D01*
X133318198Y-137564355D01*
X133125423Y-137435547D01*
X132911222Y-137346822D01*
X132683828Y-137301591D01*
X132451980Y-137301591D01*
X132224586Y-137346822D01*
X132010385Y-137435547D01*
X131817610Y-137564355D01*
X131653668Y-137728297D01*
X131524860Y-137921072D01*
X131436135Y-138135273D01*
X131419904Y-138216873D01*
X131419904Y-136200309D01*
X131436135Y-136281909D01*
X131524860Y-136496110D01*
X131653668Y-136688885D01*
X131817610Y-136852827D01*
X132010385Y-136981635D01*
X132224586Y-137070360D01*
X132451980Y-137115591D01*
X132683828Y-137115591D01*
X132911222Y-137070360D01*
X133125423Y-136981635D01*
X133318198Y-136852827D01*
X133482140Y-136688885D01*
X133610948Y-136496110D01*
X133699673Y-136281909D01*
X133744904Y-136054515D01*
X133744904Y-135822667D01*
X133699673Y-135595273D01*
X133610948Y-135381072D01*
X133482140Y-135188297D01*
X133318198Y-135024355D01*
X133125423Y-134895547D01*
X132911222Y-134806822D01*
X132683828Y-134761591D01*
X132451980Y-134761591D01*
X132224586Y-134806822D01*
X132010385Y-134895547D01*
X131817610Y-135024355D01*
X131653668Y-135188297D01*
X131524860Y-135381072D01*
X131436135Y-135595273D01*
X131419904Y-135676873D01*
X131419904Y-134384755D01*
X131444698Y-134431141D01*
X131485561Y-134480934D01*
X131535354Y-134521797D01*
X131592161Y-134552161D01*
X131653801Y-134570859D01*
X131717904Y-134577173D01*
X133417904Y-134577173D01*
X133421315Y-134576837D01*
X136140904Y-134576837D01*
X136140904Y-134700345D01*
X136164999Y-134821480D01*
X136212264Y-134935587D01*
X136280881Y-135038280D01*
X136290905Y-135048304D01*
X136290904Y-136328879D01*
X136280881Y-136338902D01*
X136212264Y-136441595D01*
X136164999Y-136555702D01*
X136140904Y-136676837D01*
X136140904Y-136800345D01*
X136164999Y-136921480D01*
X136212264Y-137035587D01*
X136280881Y-137138280D01*
X136368215Y-137225614D01*
X136470908Y-137294231D01*
X136585015Y-137341496D01*
X136706150Y-137365591D01*
X136829658Y-137365591D01*
X136950793Y-137341496D01*
X137064900Y-137294231D01*
X137167593Y-137225614D01*
X137254927Y-137138280D01*
X137323544Y-137035587D01*
X137370809Y-136921480D01*
X137394904Y-136800345D01*
X137394904Y-136676837D01*
X137370809Y-136555702D01*
X137323544Y-136441595D01*
X137254927Y-136338902D01*
X137244904Y-136328879D01*
X137244904Y-135048303D01*
X137254927Y-135038280D01*
X137323544Y-134935587D01*
X137370809Y-134821480D01*
X137394904Y-134700345D01*
X137394904Y-134576837D01*
X137370809Y-134455702D01*
X137323544Y-134341595D01*
X137254927Y-134238902D01*
X137167593Y-134151568D01*
X137064900Y-134082951D01*
X136950793Y-134035686D01*
X136829658Y-134011591D01*
X136706150Y-134011591D01*
X136585015Y-134035686D01*
X136470908Y-134082951D01*
X136368215Y-134151568D01*
X136280881Y-134238902D01*
X136212264Y-134341595D01*
X136164999Y-134455702D01*
X136140904Y-134576837D01*
X133421315Y-134576837D01*
X133482007Y-134570859D01*
X133543647Y-134552161D01*
X133600454Y-134521797D01*
X133650247Y-134480934D01*
X133691110Y-134431141D01*
X133721474Y-134374334D01*
X133740172Y-134312694D01*
X133746486Y-134248591D01*
X133746486Y-133041701D01*
X149126428Y-133041701D01*
X149247749Y-133271591D01*
X150440904Y-133271591D01*
X150440904Y-132077777D01*
X150211013Y-131957110D01*
X149936652Y-132054434D01*
X149686549Y-132203413D01*
X149470316Y-132398322D01*
X149296263Y-132631671D01*
X149171079Y-132894492D01*
X149126428Y-133041701D01*
X133746486Y-133041701D01*
X133746486Y-132548591D01*
X133740172Y-132484488D01*
X133721474Y-132422848D01*
X133691110Y-132366041D01*
X133650247Y-132316248D01*
X133600454Y-132275385D01*
X133543647Y-132245021D01*
X133482007Y-132226323D01*
X133417904Y-132220009D01*
X131717904Y-132220009D01*
X131678653Y-132223875D01*
X131754512Y-132130863D01*
X131926896Y-131988255D01*
X132123691Y-131881848D01*
X132337404Y-131815692D01*
X132576234Y-131790591D01*
X146467192Y-131790591D01*
X146982323Y-132057788D01*
G37*
G04 #@! TD.AperFunction*
M02*
