G04 #@! TF.GenerationSoftware,KiCad,Pcbnew,(5.1.9)-1*
G04 #@! TF.CreationDate,2021-06-21T21:55:09+02:00*
G04 #@! TF.ProjectId,Driver,44726976-6572-42e6-9b69-6361645f7063,rev?*
G04 #@! TF.SameCoordinates,Original*
G04 #@! TF.FileFunction,Soldermask,Top*
G04 #@! TF.FilePolarity,Negative*
%FSLAX46Y46*%
G04 Gerber Fmt 4.6, Leading zero omitted, Abs format (unit mm)*
G04 Created by KiCad (PCBNEW (5.1.9)-1) date 2021-06-21 21:55:09*
%MOMM*%
%LPD*%
G01*
G04 APERTURE LIST*
%ADD10O,1.700000X1.700000*%
%ADD11R,1.700000X1.700000*%
G04 APERTURE END LIST*
G36*
G01*
X143392904Y-132488591D02*
X143392904Y-131988591D01*
G75*
G02*
X143617904Y-131763591I225000J0D01*
G01*
X144067904Y-131763591D01*
G75*
G02*
X144292904Y-131988591I0J-225000D01*
G01*
X144292904Y-132488591D01*
G75*
G02*
X144067904Y-132713591I-225000J0D01*
G01*
X143617904Y-132713591D01*
G75*
G02*
X143392904Y-132488591I0J225000D01*
G01*
G37*
G36*
G01*
X141842904Y-132488591D02*
X141842904Y-131988591D01*
G75*
G02*
X142067904Y-131763591I225000J0D01*
G01*
X142517904Y-131763591D01*
G75*
G02*
X142742904Y-131988591I0J-225000D01*
G01*
X142742904Y-132488591D01*
G75*
G02*
X142517904Y-132713591I-225000J0D01*
G01*
X142067904Y-132713591D01*
G75*
G02*
X141842904Y-132488591I0J225000D01*
G01*
G37*
D10*
X132567904Y-138478591D03*
X132567904Y-135938591D03*
D11*
X132567904Y-133398591D03*
G36*
G01*
X139742904Y-131988591D02*
X139742904Y-132488591D01*
G75*
G02*
X139517904Y-132713591I-225000J0D01*
G01*
X139067904Y-132713591D01*
G75*
G02*
X138842904Y-132488591I0J225000D01*
G01*
X138842904Y-131988591D01*
G75*
G02*
X139067904Y-131763591I225000J0D01*
G01*
X139517904Y-131763591D01*
G75*
G02*
X139742904Y-131988591I0J-225000D01*
G01*
G37*
G36*
G01*
X141292904Y-131988591D02*
X141292904Y-132488591D01*
G75*
G02*
X141067904Y-132713591I-225000J0D01*
G01*
X140617904Y-132713591D01*
G75*
G02*
X140392904Y-132488591I0J225000D01*
G01*
X140392904Y-131988591D01*
G75*
G02*
X140617904Y-131763591I225000J0D01*
G01*
X141067904Y-131763591D01*
G75*
G02*
X141292904Y-131988591I0J-225000D01*
G01*
G37*
D10*
X150567904Y-133398591D03*
X150567904Y-135938591D03*
D11*
X150567904Y-138478591D03*
G36*
G01*
X143692904Y-134088591D02*
X143692904Y-133888591D01*
G75*
G02*
X143792904Y-133788591I100000J0D01*
G01*
X145067904Y-133788591D01*
G75*
G02*
X145167904Y-133888591I0J-100000D01*
G01*
X145167904Y-134088591D01*
G75*
G02*
X145067904Y-134188591I-100000J0D01*
G01*
X143792904Y-134188591D01*
G75*
G02*
X143692904Y-134088591I0J100000D01*
G01*
G37*
G36*
G01*
X143692904Y-134738591D02*
X143692904Y-134538591D01*
G75*
G02*
X143792904Y-134438591I100000J0D01*
G01*
X145067904Y-134438591D01*
G75*
G02*
X145167904Y-134538591I0J-100000D01*
G01*
X145167904Y-134738591D01*
G75*
G02*
X145067904Y-134838591I-100000J0D01*
G01*
X143792904Y-134838591D01*
G75*
G02*
X143692904Y-134738591I0J100000D01*
G01*
G37*
G36*
G01*
X143692904Y-135388591D02*
X143692904Y-135188591D01*
G75*
G02*
X143792904Y-135088591I100000J0D01*
G01*
X145067904Y-135088591D01*
G75*
G02*
X145167904Y-135188591I0J-100000D01*
G01*
X145167904Y-135388591D01*
G75*
G02*
X145067904Y-135488591I-100000J0D01*
G01*
X143792904Y-135488591D01*
G75*
G02*
X143692904Y-135388591I0J100000D01*
G01*
G37*
G36*
G01*
X143692904Y-136038591D02*
X143692904Y-135838591D01*
G75*
G02*
X143792904Y-135738591I100000J0D01*
G01*
X145067904Y-135738591D01*
G75*
G02*
X145167904Y-135838591I0J-100000D01*
G01*
X145167904Y-136038591D01*
G75*
G02*
X145067904Y-136138591I-100000J0D01*
G01*
X143792904Y-136138591D01*
G75*
G02*
X143692904Y-136038591I0J100000D01*
G01*
G37*
G36*
G01*
X143692904Y-136688591D02*
X143692904Y-136488591D01*
G75*
G02*
X143792904Y-136388591I100000J0D01*
G01*
X145067904Y-136388591D01*
G75*
G02*
X145167904Y-136488591I0J-100000D01*
G01*
X145167904Y-136688591D01*
G75*
G02*
X145067904Y-136788591I-100000J0D01*
G01*
X143792904Y-136788591D01*
G75*
G02*
X143692904Y-136688591I0J100000D01*
G01*
G37*
G36*
G01*
X143692904Y-137338591D02*
X143692904Y-137138591D01*
G75*
G02*
X143792904Y-137038591I100000J0D01*
G01*
X145067904Y-137038591D01*
G75*
G02*
X145167904Y-137138591I0J-100000D01*
G01*
X145167904Y-137338591D01*
G75*
G02*
X145067904Y-137438591I-100000J0D01*
G01*
X143792904Y-137438591D01*
G75*
G02*
X143692904Y-137338591I0J100000D01*
G01*
G37*
G36*
G01*
X143692904Y-137988591D02*
X143692904Y-137788591D01*
G75*
G02*
X143792904Y-137688591I100000J0D01*
G01*
X145067904Y-137688591D01*
G75*
G02*
X145167904Y-137788591I0J-100000D01*
G01*
X145167904Y-137988591D01*
G75*
G02*
X145067904Y-138088591I-100000J0D01*
G01*
X143792904Y-138088591D01*
G75*
G02*
X143692904Y-137988591I0J100000D01*
G01*
G37*
G36*
G01*
X137967904Y-137988591D02*
X137967904Y-137788591D01*
G75*
G02*
X138067904Y-137688591I100000J0D01*
G01*
X139342904Y-137688591D01*
G75*
G02*
X139442904Y-137788591I0J-100000D01*
G01*
X139442904Y-137988591D01*
G75*
G02*
X139342904Y-138088591I-100000J0D01*
G01*
X138067904Y-138088591D01*
G75*
G02*
X137967904Y-137988591I0J100000D01*
G01*
G37*
G36*
G01*
X137967904Y-137338591D02*
X137967904Y-137138591D01*
G75*
G02*
X138067904Y-137038591I100000J0D01*
G01*
X139342904Y-137038591D01*
G75*
G02*
X139442904Y-137138591I0J-100000D01*
G01*
X139442904Y-137338591D01*
G75*
G02*
X139342904Y-137438591I-100000J0D01*
G01*
X138067904Y-137438591D01*
G75*
G02*
X137967904Y-137338591I0J100000D01*
G01*
G37*
G36*
G01*
X137967904Y-136688591D02*
X137967904Y-136488591D01*
G75*
G02*
X138067904Y-136388591I100000J0D01*
G01*
X139342904Y-136388591D01*
G75*
G02*
X139442904Y-136488591I0J-100000D01*
G01*
X139442904Y-136688591D01*
G75*
G02*
X139342904Y-136788591I-100000J0D01*
G01*
X138067904Y-136788591D01*
G75*
G02*
X137967904Y-136688591I0J100000D01*
G01*
G37*
G36*
G01*
X137967904Y-136038591D02*
X137967904Y-135838591D01*
G75*
G02*
X138067904Y-135738591I100000J0D01*
G01*
X139342904Y-135738591D01*
G75*
G02*
X139442904Y-135838591I0J-100000D01*
G01*
X139442904Y-136038591D01*
G75*
G02*
X139342904Y-136138591I-100000J0D01*
G01*
X138067904Y-136138591D01*
G75*
G02*
X137967904Y-136038591I0J100000D01*
G01*
G37*
G36*
G01*
X137967904Y-135388591D02*
X137967904Y-135188591D01*
G75*
G02*
X138067904Y-135088591I100000J0D01*
G01*
X139342904Y-135088591D01*
G75*
G02*
X139442904Y-135188591I0J-100000D01*
G01*
X139442904Y-135388591D01*
G75*
G02*
X139342904Y-135488591I-100000J0D01*
G01*
X138067904Y-135488591D01*
G75*
G02*
X137967904Y-135388591I0J100000D01*
G01*
G37*
G36*
G01*
X137967904Y-134738591D02*
X137967904Y-134538591D01*
G75*
G02*
X138067904Y-134438591I100000J0D01*
G01*
X139342904Y-134438591D01*
G75*
G02*
X139442904Y-134538591I0J-100000D01*
G01*
X139442904Y-134738591D01*
G75*
G02*
X139342904Y-134838591I-100000J0D01*
G01*
X138067904Y-134838591D01*
G75*
G02*
X137967904Y-134738591I0J100000D01*
G01*
G37*
G36*
G01*
X137967904Y-134088591D02*
X137967904Y-133888591D01*
G75*
G02*
X138067904Y-133788591I100000J0D01*
G01*
X139342904Y-133788591D01*
G75*
G02*
X139442904Y-133888591I0J-100000D01*
G01*
X139442904Y-134088591D01*
G75*
G02*
X139342904Y-134188591I-100000J0D01*
G01*
X138067904Y-134188591D01*
G75*
G02*
X137967904Y-134088591I0J100000D01*
G01*
G37*
M02*
